<svg xmlns="http://www.w3.org/2000/svg" xmlns:xlink="http://www.w3.org/1999/xlink" version="1.1" x="0px" y="0px" viewBox="0 0 200 250" style="enable-background:new 0 0 200 200;" xml:space="preserve"><g><path d="M162.4,143.1l0-11.1l0-5.5l0-2.7c0-0.2,0-0.7,0.1-1.2l0.1-1.4l0.1-1.3l0-0.8c0-0.4,0-0.8,0-1.2c0-0.8-0.1-1.6-0.4-2.2   c-0.2-0.7-0.6-1.2-1-1.8c-0.4-0.3-0.8-0.5-1.2-0.8c-0.4-0.2-0.9-0.3-1.4-0.4c-0.5-0.1-1-0.1-1.6-0.1l-0.8,0l-0.6,0   c-1.1,0.1-2.3,0.2-3.2,0.3l-6.3,0H143c-1,0-2.4,0-3.5,0.1c-1.1,0.1-2.1,0.2-3,0.2c-0.2,0-0.5,0-0.6,0l-0.3,0c0-0.3,0.1-0.9,0.1-1.3   c0-0.5,0.1-1,0.2-1.7l0-0.6v-0.4v-0.8v-1.6v-3.2V90.7v-6.5V81c0-1.1,0-2.2,0-3.1c0.1-1.9,0.4-4.1,0.5-6.4c0.1-1.1,0.1-2.3,0.1-3.5   c0-0.6,0-1.2-0.1-1.9c0-0.3-0.1-0.7-0.1-1c0-0.3-0.1-0.7-0.3-1.2c-0.1-0.4-0.3-0.9-0.5-1.4c-0.2-0.5-0.5-0.9-0.7-1.4   c-0.1-0.2-0.2-0.4-0.3-0.6c0,0,0-0.1,0-0.1c0.1,0,0,0-0.1,0c-0.1,0-0.2-0.1-0.3-0.1l-1.4-0.5c-0.5-0.2-1-0.4-1.5-0.5   c-0.5-0.1-0.8-0.2-1.2-0.2c-0.8-0.1-1.5-0.1-2.1,0c-1.3,0.1-2.4,0.3-3.3,0.3c-0.5,0.1-0.9,0.1-1.3,0.1c-0.4,0-0.6,0-0.5,0l0-0.4   c0-0.4-0.1-0.9-0.1-1.3c0-1.9,0.2-4,0.2-6.4c0-8.6-1.5-15.5-3.2-15.5c0-0.4-0.7-0.8-2.1-0.8h0c-4.8-0.2-9.6-0.3-14.4-0.5l0-7.5   c0-4.2-0.8-8.4-2.4-12.6c-0.1-0.3-1.6-0.3-1.7,0c-1.6,4.2-2.4,8.4-2.4,12.6l0,7.3l-2.1-0.1l-2.3-0.1c-0.6,0-1.4-0.1-2.1-0.2   c-1.5-0.2-3.1-0.4-4.7-0.5c-0.8-0.1-1.6-0.1-2.5-0.1c-1.1,0.1-2.4,0.2-3.4,0.8c-1.3,0.9-1.6,2.5-1.7,4.1c-0.1,1.2,0,2.2,0,3.2   c0,1,0.1,2,0.1,2.8l-0.1,2.9l-0.3,11.7l0,0.6l0,0.2c0,0.1,0,0.2-0.1,0.3c-0.1,0.2-0.4,0.1-0.5,0.1l-0.1,0c0,0,0,0-0.2,0L76,60   c-0.6,0-0.9,0-1.4-0.1c-0.9-0.1-1.9-0.2-3-0.2c-0.5,0-1.1-0.1-1.6,0c-0.2,0-0.8,0-1.2,0.1c-0.5,0-0.9,0.1-1.3,0.2   c-1.7,0.4-3.1,1.7-3.4,3.5c-0.1,0.4-0.2,0.9-0.2,1.3c0,0.4-0.1,1-0.1,1.2c0,0.6,0,1.1,0,1.6c0.1,1,0.1,2.1,0.2,3   c0,0.5,0.1,1,0.1,1.3l0,1.4l0,2.9l-0.1,5.9L64,93.8l0,5.9l0,2.9c0,1,0,2.1,0.1,3.1c0.1,2,0.2,3.9,0.2,5.6c0,0.4,0,0.8-0.1,1.3   c0,0.5-0.1,0.7-0.1,0.7l0,0l-0.2,0c-0.2,0-0.6,0.1-0.9,0.1c-0.7,0.1-1.4,0.1-2.2,0.1c-1.5,0-3.1-0.1-4.7-0.2   c-1.6-0.1-3.4-0.2-5.2-0.3l-4.8-0.4l-1.3-0.1c-0.5,0-0.7,0-1.7,0c-0.8,0.1-1.7,0.1-2.4,0.3c-0.8,0.1-1.4,0.5-1.9,0.9   c-0.3,0.2-0.5,0.5-0.7,0.8c-0.2,0.3-0.4,0.6-0.5,0.9c-0.2,0.7-0.3,1.5-0.3,2.3c0.1,1.9,0.2,2.7,0.2,3.1v10v39.9   c0,6.3,1.5,11.5,3.2,11.5c0,0.4,1,0.8,2.9,0.8h0c29.4,0.8,58.8,1.4,88.2,1.8l11.1,0.1l5.5,0.1c1.5,0,3.4,0.3,5.4,0.4   c0.5,0,1,0,1.6,0.1c0.6,0,1.1,0,1.9-0.1c0.9-0.1,1.7-0.4,2.5-0.7c0.9-0.3,1.5-0.7,1.9-1.3c0.4-0.5,0.6-1.3,0.6-2.3   c0-0.4,0-1,0.1-1.3l0.1-0.7c0.1-1,0.2-1.9,0.3-2.8c0.3-3.8,0.4-7.6,0.3-11.3C162.8,157.7,162.4,150.4,162.4,143.1z M56.8,166   c0-0.7-0.1-1.1-0.1-1.6l-0.1-1.3l0-0.7l0,0l0,0l0,0l0.1,0l0.3,0l2.1,0.1c0.4,0,0.7,0,1.3,0.1c0.7,0,1-0.1,1.4-0.1l2.1-0.2   c0.5,0,0.4,0,0.4-0.1c0,0,0.1,0,0.1,0c0.1,0,0.2-0.1,0.2,0c0,0,0.1,0.1,0.1,0.2c0-0.1,0,0.5,0,0.8l0,1.1l0,1.3l0.1,1.1l0.2,2.2   l0.4,4.3c0.3,2.6,0.6,5.2,1,7.8c-3.4,0.1-6.8,0.2-10.2,0.2c0.5-0.5,0.7-1.2,0.7-1.9v-10.6L56.8,166z M83.4,166   c0-0.7-0.1-1.1-0.1-1.6l-0.1-1.3l0-0.7l0,0l0,0l0,0l0.1,0l0.3,0l2.1,0.1c0.4,0,0.7,0,1.3,0.1c0.7,0,1-0.1,1.4-0.1l2.1-0.2   c0.5,0,0.4,0,0.4-0.1c0,0,0.1,0,0.1,0c0.1,0,0.2-0.1,0.2,0c0,0,0.1,0.1,0.1,0.2c0-0.1,0,0.5,0,0.8l0,1.1l0,1.3l0.1,1.1l0.2,2.2   l0.4,4.3c0.3,2.4,0.6,4.8,0.9,7.2c-3.2,0.1-6.4,0.1-9.7,0.2c0.2-0.4,0.3-0.8,0.3-1.3v-10.6L83.4,166z M109.3,165.5   c0-0.7-0.1-1.1-0.1-1.5l-0.1-1.3l-0.1-1l0,0l1.2,0.1l1.6,0.1c0.3,0,0.5,0,1,0c0.5,0,0.8,0,1.1-0.1l2.8-0.3c0.1,0,0.2-0.1,0.3-0.1   c0.1,0,0.1,0.1,0.2,0.3c0,0,0,0,0,0l0,0.2l0,0.3l0,0.7l0,1.5l0,0.4c0,0.2,0,0.4,0,0.5l0.1,0.7l0.1,1.4l0.2,2.9   c0.3,3.2,0.7,6.4,1.1,9.6c-3.2,0-6.3,0.1-9.5,0.2c0.1-0.3,0.1-0.6,0.1-0.9v-10.9L109.3,165.5z M133.7,179.7   c0.3-2.2,0.6-4.4,0.8-6.6l0.4-4.3l0.2-2.2l0.1-1.1l0-1.3l0-1.1c0-0.3,0-0.8,0-0.8c0-0.1,0.1-0.2,0.1-0.2c0-0.1,0.2,0,0.2,0   c0,0,0.1,0,0.1,0c0,0,0,0,0.4,0.1l2.1,0.2c0.4,0,0.7,0.1,1.4,0.1c0.6,0,0.9,0,1.3-0.1l2.1-0.1l0.3,0l0.1,0l0,0l0,0l0,0l0,0.7   l-0.1,1.3c0,0.5-0.1,0.8-0.1,1.6l0,2.7v10.6c0,0.1,0,0.2,0,0.3l-0.3,0L133.7,179.7z M156.5,176.1c0,0.9-0.1,1.8-0.2,2.7l-0.1,0.7   c0,0.2,0,0.1,0,0.1l0,0.1c-0.1,0-0.1,0.1-0.2,0.1c-0.1,0-0.5,0.1-0.9,0.1c-0.4,0-0.8,0-1.2,0c-1.4,0-2.8-0.2-4.5-0.3   c0-0.1,0-0.2,0-0.2v-10.6l0-2.6l0.2-2.5l0-0.7c0-0.4,0-0.8,0-1.2c0-0.9,0-1.7-0.2-2.5c-0.4-1.5-1.5-2.7-3.1-3   c-0.6-0.2-1.4-0.2-2.1-0.2c-0.4,0-0.7,0-1.1,0l-0.7,0c-0.8,0-1.5,0.1-2.2,0.2l-0.9,0.1c-0.1,0-0.5,0-0.8,0l-2.2-0.1   c-0.3,0-1.1,0-1.7,0c-0.7,0-1.4,0-2,0.2c-0.6,0.1-1.2,0.4-1.6,0.7c-0.2,0.2-0.5,0.3-0.7,0.6c-0.2,0.3-0.3,0.5-0.4,0.8   c-0.5,1-0.5,2.5-0.4,3.8c0.1,0.8,0.1,1,0.2,1.4l0.2,1.1c0.1,0.3,0.1,0.8,0.1,0.9l0.1,1.1l0.2,2.2l0.4,4.3c0.2,2.2,0.5,4.4,0.8,6.6   c-3.6,0-7.2,0.1-10.8,0.2c0.4-3.2,0.8-6.4,1.1-9.5l0.2-2.9l0.1-1.4l0.1-0.7c0-0.2,0-0.2,0-0.2l0-0.3l0.2-1.4l0.1-0.7l0-0.4l0-0.2   l0-0.3c0.1-1.7,0.2-3.6-0.8-4.9c-0.7-0.6-1.3-1.1-2.2-1.3c-0.9-0.2-2-0.2-2.9-0.2l-1.1,0l-0.8,0l-1.6,0.1c-0.3,0-0.5,0-0.5,0   l-0.6-0.1l-1.6-0.1l-0.8-0.1l-0.4,0l-0.7,0c-1,0-2.1,0-3,0.3c-0.4,0.1-0.8,0.3-1.1,0.5c-0.3,0.2-0.7,0.4-0.9,0.7   c-0.5,0.6-0.9,1.3-1,2.1c-0.2,0.8-0.2,1.7-0.1,2.6l0,0.6l0,0.4l0.1,0.7l0.2,2.6l0,2.6v10.9c0,0.3,0.1,0.7,0.2,1   c-2.8,0-5.5,0.1-8.3,0.1c0.3-2.4,0.6-4.8,0.9-7.2l0.4-4.3l0.2-2.2l0.1-1.1c0-0.1,0.1-0.6,0.1-0.9l0.2-1.1c0.1-0.4,0.1-0.6,0.2-1.4   c0.1-1.3,0.1-2.8-0.4-3.8c-0.1-0.2-0.3-0.5-0.4-0.8c-0.2-0.3-0.5-0.4-0.7-0.6c-0.4-0.4-1-0.6-1.6-0.7c-0.6-0.1-1.3-0.2-2-0.2   c-0.7,0-1.5,0-1.7,0l-2.2,0.1c-0.3,0-0.7,0-0.8,0l-0.9-0.1c-0.7-0.1-1.5-0.1-2.2-0.2l-0.7,0c-0.4,0-0.7,0-1.1,0   c-0.7,0-1.4,0-2.1,0.2c-1.6,0.3-2.7,1.5-3.1,3c-0.2,0.8-0.2,1.7-0.2,2.5c0,0.4,0,0.8,0,1.2l0,0.7l0.2,2.5l0,2.6v10.6   c0,0.5,0.1,1,0.4,1.4c-3.1,0.1-6.1,0.1-9.2,0.2c0.4-2.6,0.7-5.2,1-7.8l0.4-4.3l0.2-2.2l0.1-1.1c0-0.1,0.1-0.6,0.1-0.9l0.2-1.1   c0.1-0.4,0.1-0.6,0.2-1.4c0.1-1.3,0.1-2.8-0.4-3.8c-0.1-0.2-0.3-0.5-0.4-0.8c-0.2-0.3-0.5-0.4-0.7-0.6c-0.4-0.4-1-0.6-1.6-0.7   c-0.6-0.1-1.3-0.2-2-0.2c-0.7,0-1.5,0-1.7,0l-2.2,0.1c-0.3,0-0.7,0-0.8,0l-0.9-0.1c-0.7-0.1-1.5-0.1-2.2-0.2l-0.7,0   c-0.4,0-0.7,0-1.1,0c-0.7,0-1.4,0-2.1,0.2c-1.6,0.3-2.7,1.5-3.1,3c-0.2,0.8-0.2,1.7-0.2,2.5c0,0.4,0,0.8,0,1.2l0,0.7l0.2,2.5l0,2.6   v10.6c0,0.8,0.3,1.5,0.8,2c-2.6,0.1-5.1,0.1-7.7,0.2h0c-0.8,0-1.4,0.1-1.8,0.2c1.3-1.5,2.2-5.8,2.2-10.8v-39.9v-10l-0.1-1.9   c-0.2,0,0.4,0,0.8,0l1.2,0.1l2.4,0.2l1.2,0.1c0.5,0,0.8,0.1,1.5,0.1c1.6,0,3.1,0.1,4.8,0.2c1.7,0.1,3.4,0.2,5.2,0.2   c0.9,0,1.8,0,2.8-0.2c0.5-0.1,0.9-0.1,1.5-0.2l1-0.2c0.4-0.1,0.9-0.1,1.3-0.2c0.5-0.1,0.9-0.3,1.2-0.5c0.3-0.2,0.6-0.4,0.8-0.7   c0.2-0.3,0.4-0.6,0.5-1c0.1-0.4,0.2-0.9,0.2-1.4c0.1-1,0.3-1.8,0.3-2.3c0.1-0.6,0.1-1.1,0.1-1.7c0.1-2.2-0.1-4.2-0.2-6.1   c-0.1-1-0.1-1.8-0.1-2.8l0-2.9l0-5.9l-0.1-11.8l-0.1-5.9l0-2.9l0-1.6c0-0.7-0.1-1.1-0.1-1.6c-0.1-1-0.2-1.9-0.3-2.8   c0-0.4-0.1-0.9-0.1-1.3l0-0.4c0-0.1,0.1-0.3,0.2-0.3l0.1,0c0.1,0,0,0,0.3,0c0.4,0,0.8,0,1.3,0l2.9,0.1c0.5,0,1.2,0,1.6,0l0.7,0   l1.2,0c0.9,0,1.7-0.1,2.4-0.3c0.7-0.3,1.4-0.8,1.7-1.5c0.4-0.7,0.6-1.5,0.6-2.3c0.1-0.4,0-0.9,0-1.3l0-0.8l-0.3-11.8l-0.1-2.9   c0-1.1-0.2-2.1-0.2-3.1C82,40.3,82,39.3,82,38.6c0-0.3-0.1-0.8,0.3-1c0.3-0.1,0.5-0.2,0.9-0.2c0.7-0.1,1.4-0.1,2.1,0   c1.5,0,3,0.1,4.5,0.3c0.8,0,1.5,0.1,2.5,0.1l2.3-0.1l4.6-0.1c6.1-0.2,12.3-0.4,18.4-0.6h0c0.5,0,0.9-0.1,1.2-0.2   c-1.3,1.9-2.3,7.8-2.3,14.8c0,1.9-0.2,4.1-0.2,6.5c0,0.6,0,1.2,0.1,1.9c0,0.3,0.1,0.8,0.2,1.2c0,0.5,0,1.1,0.1,1.6   c0.2,1.1,0.6,1.7,1.3,2.2c0.6,0.5,1.8,0.7,2.9,0.8c2.3,0.5,3.3,0.3,4.6,0.2c1.2-0.1,2.2-0.3,3.1-0.3c0.4,0,0.8,0,1.1,0l0.4,0l0,0.1   c0,0.1,0,0.2,0.1,0.4c0,0.2,0.1,0.4,0.1,0.6c0,0.4,0.1,0.9,0.1,1.3c0,0.9,0,1.9-0.1,3c-0.1,2.1-0.4,4.1-0.5,6.5   c-0.1,1.3,0,2.3,0,3.4v3.2v6.5v12.9l0,6.3l-0.1,1.5c-0.1,0.6-0.1,1.1-0.1,1.9c0,1.1,0,2.2,0.4,3.1c0.2,0.5,0.4,0.9,0.8,1.3   c0.1,0.2,0.3,0.4,0.5,0.6c0.2,0.2,0.4,0.3,0.6,0.5c0.8,0.6,1.9,0.9,2.9,1l0.8,0.1l0.5,0c0.3,0,0.6,0,1,0c1.2,0,2.4-0.1,3.4-0.2   c1.1-0.1,1.8-0.1,3-0.1h3.2h3.2h1.6h0.8h0.4l0.6,0l3.4-0.3l0,0.4l-0.1,1.1l-0.1,1.3c0,0.5-0.1,0.9-0.1,1.6l0,2.8l0,5.5l0,11.1   c0,7.5,0.5,14.9,0.6,22.1C156.7,168.9,156.7,172.5,156.5,176.1z"/><path d="M96.4,76.5c-0.1-0.4-0.2-0.9-0.4-1.3c-0.2-0.4-0.4-0.8-0.7-1.2c-0.4-0.2-0.8-0.5-1.2-0.7c-0.5-0.1-0.9-0.3-1.4-0.4   l-2.3-0.3c-1.2-0.1-2.4-0.2-3.5-0.3c-1.2-0.1-2.4-0.1-3.6-0.1l-1,0c-0.6,0-1.1,0.1-1.7,0.1l-0.4,0l-0.4,0.1l-0.7,0.2   c-0.5,0.2-0.8,0.4-1.3,0.7c-0.4,0.7-0.8,1.2-1,2c-0.2,0.3-0.2,0.8-0.2,1.2c0,0.4-0.1,0.8-0.1,1.3l-0.1,1.5l0,1.3   c0,1.7,0,3.4,0.1,5.1l0.1,1.3c0,0.2,0.1,0.8,0.1,1.1c0.1,0.4,0,0.8,0.2,1.2c0.1,0.4,0.2,0.7,0.4,1.1l0.5,0.9l0.1,0.1l0,0   c0,0,0,0,0,0l0,0l0.1,0l0.2,0.2c0.1,0.1,0.3,0.2,0.4,0.3c0.3,0.2,0.6,0.4,0.9,0.6l1.1,0.3l1.2,0.2c0.4,0.1,0.9,0.1,1.1,0.1l0.7,0   c0.9,0,1.8,0,2.6-0.1c1.7-0.1,3.4-0.2,5-0.4c1.6-0.1,2.5-1.6,2.5-3.4v0c0.4,0,0.8-0.2,0.8-0.5c0.5-2.1,1-4.3,1.4-6.6   c0.2-1.1,0.4-2.3,0.5-3.5c0-0.3,0-0.6,0-1.1L96.4,76.5z M90.6,86.5c-1.6,0.1-3.2,0.3-4.8,0.4c-0.8,0-1.5,0.1-2.3,0.1l-0.6,0   l-0.1-1.3c-0.1-1.6-0.1-3.2-0.1-4.7l0.1-2.3c0,0,0,0,0-0.1c0,0,0,0,0-0.1c0,0,0,0,0,0c0,0,0.2,0,0.3,0l0.4,0l3.3-0.2l3.3-0.1l0.8,0   c0.2,0,0.1,0,0.2,0l0.1,0c0.1,0,0.3-0.1,0.5-0.1c0.1,0.1,0.2,0.2,0.3,0.3c0.1,0.2,0.1,0.2,0.2,0.8c0.1,1,0.2,2.1,0.3,3.2   c0.1,1.7,0.2,3.4,0.3,5.1C92.2,86.7,91.4,86.4,90.6,86.5z"/><path d="M106.7,62.8L106.7,62.8c0.4,0,0.8-0.2,0.8-0.5v0c0.6-2.6,1.2-5.2,1.6-8c0.1-0.7,0.2-1.4,0.2-2.1l0-0.6c0-0.3,0-0.5,0-0.8   c0-0.6-0.1-1.1-0.2-1.7c-0.2-1-0.9-2.1-1.9-2.4c-0.2-0.1-0.5-0.2-0.8-0.3c-0.3-0.1-0.5-0.2-0.8-0.2l-1.6-0.2   c-2.8-0.4-5.5-0.5-8.4-0.5c-0.1,0-0.4,0-0.8,0l-1,0.1c-0.3,0-0.7,0-1,0.1l-0.9,0.3c-0.3,0.1-0.5,0.3-0.8,0.4l-0.4,0.2   c-0.1,0.1-0.3,0.1-0.3,0.3c-0.3,0.5-0.6,0.9-0.8,1.5c-0.1,0.3-0.2,0.6-0.3,0.9l-0.1,1c0,0.3-0.1,0.7-0.1,1l0,0.6   c0,0.7-0.1,1.4-0.1,2.1c0,1.5,0,3,0,4.5l0,1.1c0,0.4,0,0.6,0.1,1.5c0,1.5,0.6,2.7,1.2,3.8c0.7,0.4,1.3,1,2.2,1.2   c0.4,0.2,0.8,0.2,1.3,0.3c0.4,0.1,0.9,0.1,1.3,0.1c1.2,0.1,2.1,0,3.1,0c1.9-0.1,3.7-0.3,5.5-0.4C105.8,66.1,106.7,64.6,106.7,62.8z    M98.4,60.1c-0.8,0-1.7,0.1-2.4,0l0,0l-0.1-1.7c0-1.4-0.1-2.8,0-4.2l0-1.9l0-0.4c0,0,0,0,0,0l0,0c0,0,0,0,0-0.1c0,0,0,0,0,0l0,0   c0,0,0,0,0.2,0c2.5-0.2,5.2-0.4,7.7-0.4c1.1-0.2,1.3-0.4,1.6,2.9c0.2,2.1,0.3,4.2,0.4,6.4c-0.6-0.6-1.4-0.9-2.2-0.8   C101.8,59.9,100.1,60.1,98.4,60.1z"/><path d="M122.2,75.9c-0.2-1-0.9-2.1-1.9-2.4c-0.2-0.1-0.5-0.2-0.8-0.3c-0.3-0.1-0.5-0.2-0.8-0.2l-1.6-0.2c-2.8-0.4-5.5-0.5-8.4-0.5   c-0.1,0-0.4,0-0.8,0l-1,0.1c-0.3,0-0.7,0-1,0.1l-0.9,0.3c-0.3,0.1-0.5,0.3-0.8,0.4l-0.4,0.2c-0.1,0.1-0.3,0.1-0.3,0.3   c-0.3,0.5-0.6,0.9-0.8,1.5c-0.1,0.3-0.2,0.6-0.3,0.9l-0.1,1c0,0.3-0.1,0.7-0.1,1l0,0.6c0,0.7-0.1,1.4-0.1,2.1c0,1.7,0,3.4,0.1,5.1   l0.1,1.3c0,0.2,0.1,0.8,0.1,1.1c0.1,0.4,0,0.8,0.2,1.2c0.1,0.4,0.2,0.7,0.4,1.1l0.5,0.9l0.1,0.1l0,0c0,0,0,0,0,0l0,0l0.1,0l0.2,0.2   c0.1,0.1,0.3,0.2,0.4,0.3c0.3,0.2,0.6,0.4,0.9,0.6l1.1,0.3l1.2,0.2c0.4,0.1,0.9,0.1,1.1,0.1l0.7,0c0.9,0,1.8,0,2.6-0.1   c1.7-0.1,3.4-0.2,5-0.4c1.6-0.1,2.5-1.6,2.5-3.4v0c0.4,0,0.8-0.2,0.8-0.5c0.6-2.6,1.2-5.2,1.6-8c0.1-0.7,0.2-1.4,0.2-2.1l0-0.6   c0-0.3,0-0.5,0-0.8C122.3,77,122.3,76.4,122.2,75.9z M116.6,86.5c-1.6,0.1-3.2,0.3-4.8,0.4c-0.8,0-1.5,0.1-2.3,0.1l-0.6,0l-0.1-1.3   c-0.1-1.6-0.1-3.2-0.1-4.7l0-1.9l0-0.4c0,0,0,0,0,0l0,0c0,0,0,0,0-0.1c0,0,0,0,0,0l0,0c0,0,0,0,0.2,0c2.5-0.2,5.2-0.4,7.7-0.4   c1.1-0.2,1.3-0.4,1.6,2.9c0.2,2.1,0.3,4.2,0.4,6.4C118.2,86.7,117.4,86.4,116.6,86.5z"/><path d="M94.6,115.8c0.6-2.6,1.2-5.2,1.6-8c0.1-0.7,0.2-1.4,0.2-2.1l0-0.6c0-0.3,0-0.5,0-0.8c0-0.6-0.1-1.1-0.2-1.7   c-0.2-1-0.9-2.1-1.9-2.4c-0.2-0.1-0.5-0.2-0.8-0.3c-0.3-0.1-0.5-0.2-0.8-0.2l-1.6-0.2c-2.8-0.4-5.5-0.5-8.4-0.5c-0.1,0-0.4,0-0.8,0   l-1,0.1c-0.3,0-0.7,0-1,0.1l-0.9,0.3c-0.3,0.1-0.5,0.3-0.8,0.4l-0.4,0.2c-0.1,0.1-0.3,0.1-0.3,0.3c-0.3,0.5-0.6,0.9-0.8,1.5   c-0.1,0.3-0.2,0.6-0.3,0.9l-0.1,1c0,0.3-0.1,0.7-0.1,1l0,0.6c0,0.7-0.1,1.4-0.1,2.1c0,1.5,0,3,0,4.5l0,1.1c0,0.4,0,0.6,0.1,1.5   c0,1.5,0.6,2.7,1.2,3.8c0.7,0.4,1.3,1,2.2,1.2c0.4,0.2,0.8,0.2,1.3,0.3c0.4,0.1,0.9,0.1,1.3,0.1c1.2,0.1,2.1,0,3.1,0   c1.9-0.1,3.7-0.3,5.5-0.4c1.6-0.1,2.5-1.6,2.5-3.4l0,0C94.1,116.3,94.5,116.1,94.6,115.8z M90.6,113.3c-1.8,0.2-3.6,0.3-5.3,0.4   c-0.8,0-1.7,0.1-2.4,0l0,0l-0.1-1.7c0-1.4-0.1-2.8,0-4.2l0-1.9l0-0.4c0,0,0,0,0,0l0,0c0,0,0,0,0-0.1c0,0,0,0,0,0l0,0c0,0,0,0,0.2,0   c2.5-0.2,5.2-0.4,7.7-0.4c1.1-0.2,1.3-0.4,1.6,2.9c0.2,2.1,0.3,4.2,0.4,6.4C92.2,113.5,91.4,113.2,90.6,113.3z"/><path d="M122.2,102.7c-0.2-1-0.9-2.1-1.9-2.4c-0.2-0.1-0.5-0.2-0.8-0.3c-0.3-0.1-0.5-0.2-0.8-0.2l-1.6-0.2   c-2.8-0.4-5.5-0.5-8.4-0.5c-0.1,0-0.4,0-0.8,0l-1,0.1c-0.3,0-0.7,0-1,0.1l-0.9,0.3c-0.3,0.1-0.5,0.3-0.8,0.4l-0.4,0.2   c-0.1,0.1-0.3,0.1-0.3,0.3c-0.3,0.5-0.6,0.9-0.8,1.5c-0.1,0.3-0.2,0.6-0.3,0.9l-0.1,1c0,0.3-0.1,0.7-0.1,1l0,0.6   c0,0.7-0.1,1.4-0.1,2.1c0,1.5,0,3,0,4.5l0,1.1c0,0.4,0,0.6,0.1,1.5c0,1.5,0.6,2.7,1.2,3.8c0.7,0.4,1.3,1,2.2,1.2   c0.4,0.2,0.8,0.2,1.3,0.3c0.4,0.1,0.9,0.1,1.3,0.1c1.2,0.1,2.1,0,3.1,0c1.9-0.1,3.7-0.3,5.5-0.4c1.6-0.1,2.5-1.6,2.5-3.4l0,0   c0.4,0,0.8-0.2,0.8-0.5c0.6-2.6,1.2-5.2,1.6-8c0.1-0.7,0.2-1.4,0.2-2.1l0-0.6c0-0.3,0-0.5,0-0.8   C122.3,103.8,122.3,103.2,122.2,102.7z M116.6,113.3c-1.8,0.2-3.6,0.3-5.3,0.4c-0.8,0-1.7,0.1-2.4,0l0,0l-0.1-1.7   c0-1.4-0.1-2.8,0-4.2l0-1.9l0-0.4c0,0,0,0,0,0l0,0c0,0,0,0,0-0.1c0,0,0,0,0,0l0,0c0,0,0,0,0.2,0c2.5-0.2,5.2-0.4,7.7-0.4   c1.1-0.2,1.3-0.4,1.6,2.9c0.2,2.1,0.3,4.2,0.4,6.4C118.2,113.5,117.4,113.2,116.6,113.3z"/><path d="M96.4,130.1c-0.1-0.4-0.2-0.9-0.4-1.3c-0.2-0.4-0.4-0.8-0.7-1.2c-1-0.7-2.3-1.1-3.7-1.2c-1-0.1-1.7-0.2-2.5-0.3   c-1.6-0.1-3.2-0.2-4.9-0.3c-0.9,0-1.4-0.1-3.2,0.1c-0.8,0-1.4,0.3-2.1,0.5l-0.9,0.5l-0.2,0.1c-0.1,0.1-0.1,0.1-0.1,0.2l-0.3,0.4   c-0.4,0.5-0.6,1.2-0.8,1.9c-0.1,0.7-0.2,1.6-0.2,2.2c-0.1,0.8-0.1,1.7-0.1,2.5c0,1.7,0,3.4,0.1,5.1l0.1,1.3c0,0.2,0.1,0.8,0.1,1.1   c0.1,0.4,0,0.8,0.2,1.2c0.1,0.4,0.2,0.7,0.4,1.1l0.5,0.9l0.1,0.1l0,0c0,0,0,0,0,0l0,0l0.1,0l0.2,0.2c0.1,0.1,0.3,0.2,0.4,0.3   c0.3,0.2,0.6,0.4,0.9,0.6l1.1,0.3l1.2,0.2c0.4,0.1,0.9,0.1,1.1,0.1l0.7,0c0.9,0,1.8,0,2.6-0.1c1.7-0.1,3.4-0.2,5-0.4   c1.6-0.1,2.5-1.6,2.5-3.4v0l0,0c0.4,0,0.8-0.2,0.8-0.5c0.5-2.1,1-4.3,1.4-6.6c0.2-1.1,0.4-2.3,0.5-3.5c0-0.3,0-0.6,0-1.1   L96.4,130.1z M90.6,140.1c-1.6,0.1-3.2,0.3-4.8,0.4c-0.8,0-1.5,0.1-2.3,0.1l-0.6,0l-0.1-1.3c-0.1-1.6-0.1-3.2-0.1-4.7l0.1-2.2   c0-0.2,0-0.1,0-0.1c0.1,0-0.6-0.1,1.5-0.2c1.5-0.1,3-0.2,4.5-0.3l2.2-0.1c0.2,0,0.4-0.1,0.6-0.1c0.1,0.1,0.2,0.2,0.3,0.3   c0.1,0.2,0.1,0.2,0.2,0.8c0.1,1,0.2,2.1,0.3,3.2c0.1,1.7,0.2,3.4,0.3,5.1C92.2,140.3,91.4,140,90.6,140.1z"/><path d="M69.8,130.1c-0.1-0.4-0.2-0.9-0.4-1.3c-0.2-0.4-0.4-0.8-0.7-1.2c-0.4-0.2-0.8-0.5-1.2-0.7c-0.5-0.1-0.9-0.3-1.4-0.4   l-2.3-0.3c-1.2-0.1-2.4-0.2-3.5-0.3c-1.2-0.1-2.4-0.1-3.6-0.1l-1,0c-0.6,0-1.1,0.1-1.7,0.1l-0.4,0l-0.4,0.1l-0.7,0.2   c-0.5,0.2-0.8,0.4-1.3,0.7c-0.4,0.7-0.8,1.2-1,2c-0.2,0.3-0.2,0.8-0.2,1.2c0,0.4-0.1,0.8-0.1,1.3l-0.1,1.5l0,1.3   c0,1.7,0,3.4,0.1,5.1l0.1,1.3c0,0.2,0.1,0.8,0.1,1.1c0.1,0.4,0,0.8,0.2,1.2c0.1,0.4,0.2,0.7,0.4,1.1l0.5,0.9l0.1,0.1l0,0   c0,0,0,0,0,0l0,0l0.1,0l0.2,0.2c0.1,0.1,0.3,0.2,0.4,0.3c0.3,0.2,0.6,0.4,0.9,0.6l1.1,0.3l1.2,0.2c0.4,0.1,0.9,0.1,1.1,0.1l0.7,0   c0.9,0,1.8,0,2.6-0.1c1.7-0.1,3.4-0.2,5-0.4c1.6-0.1,2.5-1.6,2.5-3.4v0l0,0c0.4,0,0.8-0.2,0.8-0.5c0.5-2.1,1-4.3,1.4-6.6   c0.2-1.1,0.4-2.3,0.5-3.5c0-0.3,0-0.6,0-1.1L69.8,130.1z M64.1,140.1c-1.6,0.1-3.2,0.3-4.8,0.4c-0.8,0-1.5,0.1-2.3,0.1l-0.6,0   l-0.1-1.3c-0.1-1.6-0.1-3.2-0.1-4.7l0.1-2.3c0,0,0,0,0-0.1c0,0,0,0,0-0.1c0,0,0,0,0,0c0,0,0.2,0,0.3,0l0.4,0l3.3-0.2l3.3-0.1l0.8,0   c0.2,0,0.1,0,0.2,0l0.1,0c0.1,0,0.3-0.1,0.5-0.1c0.1,0.1,0.2,0.2,0.3,0.3c0.1,0.2,0.1,0.2,0.2,0.8c0.1,1,0.2,2.1,0.3,3.2   c0.1,1.7,0.2,3.4,0.3,5.1C65.7,140.3,64.9,140,64.1,140.1z"/><path d="M122.2,129.5c-0.2-1-0.9-2.1-1.9-2.4c-0.2-0.1-0.5-0.2-0.8-0.3c-0.3-0.1-0.5-0.2-0.8-0.2l-1.6-0.2   c-2.8-0.4-5.5-0.5-8.4-0.5c-0.1,0-0.4,0-0.8,0l-1,0.1c-0.3,0-0.7,0-1,0.1l-0.9,0.3c-0.3,0.1-0.5,0.3-0.8,0.4L104,127   c-0.1,0.1-0.3,0.1-0.3,0.3c-0.3,0.5-0.6,0.9-0.8,1.5c-0.1,0.3-0.2,0.6-0.3,0.9l-0.1,1c0,0.3-0.1,0.7-0.1,1l0,0.6   c0,0.7-0.1,1.4-0.1,2.1c0,1.5,0,3,0,4.5l0,1.1c0,0.4,0,0.6,0.1,1.5c0,1.5,0.6,2.7,1.2,3.8c0.7,0.4,1.3,1,2.2,1.2   c0.4,0.2,0.8,0.2,1.3,0.3c0.4,0.1,0.9,0.1,1.3,0.1c1.2,0.1,2.1,0,3.1,0c1.9-0.1,3.7-0.3,5.5-0.4c1.6-0.1,2.5-1.6,2.5-3.4v0l0,0   c0.4,0,0.8-0.2,0.8-0.5c0.6-2.6,1.2-5.2,1.6-8c0.1-0.7,0.2-1.4,0.2-2.1l0-0.6c0-0.3,0-0.5,0-0.8C122.3,130.6,122.3,130,122.2,129.5   z M116.6,140.1c-1.8,0.2-3.6,0.3-5.3,0.4c-0.8,0-1.7,0.1-2.4,0l0,0l-0.1-1.7c0-1.4-0.1-2.8,0-4.2l0-1.9l0-0.4c0,0,0,0,0,0l0,0   c0,0,0,0,0-0.1c0,0,0,0,0,0l0,0c0,0,0,0,0.2,0c2.5-0.2,5.2-0.4,7.7-0.4c1.1-0.2,1.3-0.4,1.6,2.9c0.2,2.1,0.3,4.2,0.4,6.4   C118.2,140.3,117.4,140,116.6,140.1z"/><path d="M148.7,129.5c-0.2-1-0.9-2.1-1.9-2.4c-0.2-0.1-0.5-0.2-0.8-0.3c-0.3-0.1-0.5-0.2-0.8-0.2l-1.6-0.2   c-2.8-0.4-5.5-0.5-8.4-0.5c-0.1,0-0.4,0-0.8,0l-1,0.1c-0.3,0-0.7,0-1,0.1l-0.9,0.3c-0.3,0.1-0.5,0.3-0.8,0.4l-0.4,0.2   c-0.1,0.1-0.3,0.1-0.3,0.3c-0.3,0.5-0.6,0.9-0.8,1.5c-0.1,0.3-0.2,0.6-0.3,0.9l-0.1,1c0,0.3-0.1,0.7-0.1,1l0,0.6   c0,0.7-0.1,1.4-0.1,2.1c0,1.7,0,3.4,0.1,5.1l0.1,1.3c0,0.2,0.1,0.8,0.1,1.1c0.1,0.4,0,0.8,0.2,1.2c0.1,0.4,0.2,0.7,0.4,1.1l0.5,0.9   l0.1,0.1l0,0c0,0,0,0,0,0l0,0l0.1,0l0.2,0.2c0.1,0.1,0.3,0.2,0.4,0.3c0.3,0.2,0.6,0.4,0.9,0.6l1.1,0.3l1.2,0.2   c0.4,0.1,0.9,0.1,1.1,0.1l0.7,0c0.9,0,1.8,0,2.6-0.1c1.7-0.1,3.4-0.2,5-0.4c1.6-0.1,2.5-1.6,2.5-3.4v0l0,0c0.4,0,0.8-0.2,0.8-0.5   c0.6-2.6,1.2-5.2,1.6-8c0.1-0.7,0.2-1.4,0.2-2.1l0-0.6c0-0.3,0-0.5,0-0.8C148.9,130.6,148.9,130,148.7,129.5z M143.2,140.1   c-1.6,0.1-3.2,0.3-4.8,0.4c-0.8,0-1.5,0.1-2.3,0.1l-0.6,0l-0.1-1.3c-0.1-1.6-0.1-3.2-0.1-4.7l0-1.9l0-0.4c0,0,0,0,0,0l0,0   c0,0,0,0,0-0.1c0,0,0,0,0,0l0,0c0,0,0,0,0.2,0c2.5-0.2,5.2-0.4,7.7-0.4c1.1-0.2,1.3-0.4,1.6,2.9c0.2,2.1,0.3,4.2,0.4,6.4   C144.8,140.3,143.9,140,143.2,140.1z"/></g><text x="0" y="215" fill="#000000" font-size="5px" font-weight="bold" font-family="'Helvetica Neue', Helvetica, Arial-Unicode, Arial, Sans-serif">Created by Symbolon</text><text x="0" y="220" fill="#000000" font-size="5px" font-weight="bold" font-family="'Helvetica Neue', Helvetica, Arial-Unicode, Arial, Sans-serif">from the Noun Project</text></svg>