<svg xmlns="http://www.w3.org/2000/svg" xmlns:xlink="http://www.w3.org/1999/xlink" version="1.1" x="0px" y="0px" viewBox="0 0 200 250" style="enable-background:new 0 0 200 200;" xml:space="preserve"><style type="text/css">
	.st0{fill:none;stroke:#000000;stroke-width:0;stroke-linecap:round;stroke-linejoin:round;}
</style><line class="st0" x1="174" y1="156.7" x2="174" y2="156.7"/><path d="M182.2,63.6c-0.2-0.6-0.4-1.1-0.9-1.6c-0.4-0.5-1-1-1.4-1.5l-0.9-0.9l-2.9-2.9l-5.9-5.7c-4-3.8-8-7.5-12-11.2l-3-2.8  c-1-0.9-2.1-2-3.4-2.8c-2.5-1.8-5.3-3-8.2-3.6c-1.5-0.3-2.9-0.5-4.4-0.5c-1.5,0-2.8,0.1-4.2,0.2l-5.5,0.4c-1.1-1.3-4.4-2.3-8.2-2.3  l-60.2,0c-4.8,0.1-9.5,1.7-13.4,4.5c-1,0.7-1.9,1.5-2.7,2.3l-2.2,2.2l-4.3,4.4c-5.8,5.9-11.5,11.7-17.2,17.7l-1.1,1.1  c-0.6,0.7-1.4,1.3-1.8,2c-0.4,0.7-0.7,1.4-0.7,2.3c0,0.9,0.3,1.6,0.8,2.2c0.5,0.7,1.3,1.3,1.8,1.9l1.1,1.1l2.3,2.1l9,8.4l9.1,8.3  c0.5,0.4,1,1,1.6,1.4c0.5,0.4,1.1,0.7,1.8,0.7c0.7,0,1.3-0.3,1.8-0.8c0.5-0.4,1-1,1.4-1.5l1.4-1.5v48.1v25.9v3.2v1.3  c0,0.5,0,1.1,0,1.6c0.1,1,0.5,1.8,1.2,2.6c0.7,0.7,1.5,1.2,2.4,1.4c0.5,0.1,1,0.1,1.6,0.1h1.5h3.2h12.9c12.6,0,25.1-0.1,37.7-0.1  l18.8-0.2l9.4-0.1l5-0.1c0.7,0,1.5,0,2.1-0.1c0.6-0.1,1.2-0.4,1.7-0.8c0.5-0.4,0.9-1,1.2-1.5c0.2-0.6,0.4-1.2,0.4-1.9  c-0.1-8.1-0.2-16.3-0.3-24.4c-0.1-7.9-0.3-15.7-0.4-23.6c-0.2-10.1-0.5-20.1-0.7-30.2c0.2,0.2,0.3,0.4,0.5,0.5l1.2,1.2l1.1,1.1  c0.4,0.4,0.8,0.8,1.3,1.1c0.8,0.5,1.9,0.8,2.9,0.6c1-0.1,1.9-0.5,2.8-1.3l12.5-12.3l5.9-5.8l2.9-2.9l2-2c0.5-0.5,1-1,1.2-1.5  c0.3-0.5,0.4-1.1,0.5-1.7C182.4,64.8,182.3,64.1,182.2,63.6z M122,35.1c-0.7,3.7-2.7,7.1-5.5,9.8c-1.4,1.3-3,2.5-4.7,3.4  c-1.7,1-3.6,1.6-5.5,2.1c-6.3,1.6-13.3,0.9-19.1-2.2c-2.9-1.6-5.5-3.7-7.6-6.3c-1.6-2-2.7-4.3-3.4-6.8l45.1,0  C121.5,35.2,121.8,35.2,122,35.1z M154,85.7l-1.4-1.4c-1.7-1.7-3.8-2.6-5.3-2.3c-0.1-3.5-0.2-7-0.3-10.5v0c-0.1-3.7-1.6-3.7-1.7,0v0  c-0.5,15.7-0.9,31.4-1.2,47.1c-0.3,15.4-0.5,30.9-0.8,46.3c0,0.1,0,0.2-0.1,0.3c-0.1,0-0.2,0-0.3,0l-4.4-0.1l-9.4-0.1l-18.8-0.2  c-12.6,0-25.1-0.1-37.7-0.1H59.7h-3.2h-0.1v-0.4v-3.2v-25.9V83.6c0-8.2-1.5-14.9-3.3-14.9c-1.8,0-3.3,6.7-3.3,14.9v0.9l-3,2.7  L46,87.8c-0.2,0.2-0.5,0.4-0.8,0.4c-0.3,0-0.6-0.3-0.8-0.5l-0.6-0.7l-8.4-9l-8.4-9l-2.1-2.2l-1.1-1.1c-0.2-0.2-0.2-0.2-0.3-0.3  c-0.2-0.1-0.2-0.5,0.1-0.6l0.3-0.2l1.1-1.1c6-5.6,11.9-11.3,17.8-17l4.4-4.3l2.2-2.1c0.6-0.6,1.3-1.1,2-1.6c2.8-2,6.2-3.1,9.7-3.2  l12.7,0c0.2,3,1,6.1,2.5,8.8c1.9,3.5,4.7,6.6,8.1,8.9c6.8,4.6,15.5,6,23.5,4c2.4-0.6,4.8-1.5,7-2.7c2.2-1.2,4.3-2.7,6.2-4.5  c3.7-3.5,6.5-8.2,7.4-13.3c0.1-0.6,0.1-1.2,0-1.8c-0.1-0.3-0.2-0.6-0.3-0.8c0.5-0.3,0.9-0.6,1.1-0.9l5.5,0.4c1.3,0.1,2.8,0.1,4,0.3  c1.2,0.2,2.5,0.4,3.6,0.8c2.4,0.8,4.5,2,6.4,3.6c0.9,0.8,1.7,1.7,2.7,2.7l2.8,3c3.7,4,7.5,8,11.3,11.9l9.2,9.4L154,85.7z"/><text x="0" y="215" fill="#000000" font-size="5px" font-weight="bold" font-family="'Helvetica Neue', Helvetica, Arial-Unicode, Arial, Sans-serif">Created by Symbolon</text><text x="0" y="220" fill="#000000" font-size="5px" font-weight="bold" font-family="'Helvetica Neue', Helvetica, Arial-Unicode, Arial, Sans-serif">from the Noun Project</text></svg>