<svg xmlns="http://www.w3.org/2000/svg" xmlns:xlink="http://www.w3.org/1999/xlink" version="1.1" x="0px" y="0px" viewBox="0 0 200 250" style="enable-background:new 0 0 200 200;" xml:space="preserve"><g><path d="M115.3,79.2c-1-0.2-2.2-0.4-3.3-0.3c-1.2,0.1-2.3,0.4-3.2,0.7c-1,0.3-1.8,0.7-2.5,1.1l-1.1,0.5l-0.4,0.2l-0.5,0.2   c-0.4,0.1-0.7,0.2-1.1,0.4l0,0.1c-2-1.3-4.2-2-6.5-2.2c-2.7-0.2-5.5,0.4-7.8,1.7c-4.7,2.6-7.3,7.7-7.4,12.6c0,0.9,0.4,1.3,0.8,1.3   c0.4,0,0.8-0.4,0.9-1.1v0c0.7-4.3,3.5-8.2,7.3-9.7c1.8-0.8,3.9-1,5.8-0.7c1.8,0.3,3.6,1.2,4.8,2.3c0.2,0.3,0.5,0.6,1,0.9   c0.3,0.2,0.8,0.4,1.4,0.4c0.6,0.1,1.1-0.1,1.5-0.3c0.4-0.2,0.7-0.4,0.9-0.6c0.2-0.2,0.4-0.4,0.5-0.5c0,0,0.1-0.1,0.1-0.1   c0,0,0.1,0,0.2,0l0.1,0c0,0,0,0,0.2-0.1c0.5-0.1,0.9-0.3,1.3-0.4c0.9-0.3,1.6-0.6,2.3-0.8c1.4-0.4,2.4-0.4,3.7,0   c2.5,0.7,4.7,2.5,6,5c1.3,2.4,1.7,5.3,1.1,7.8c-0.6,2.5-2.3,4.6-4.7,6.6c-0.6,0.5-1.3,1.1-2,1.6l-2.3,1.7l-4.4,3.3   c-1.4,1.1-2.9,2.1-4.3,3l-0.1,0.1l-1.1-0.8c-3.2-2.3-6.3-4.1-9.1-6.2c-2.8-2.1-5.3-4.3-6.6-6.9c-0.7-1.2-1.3-2.2-2.1-3   c-0.7-0.8-1.5-1.5-2.4-1.5h0c-0.9,0-1.7,0.7-2.1,2.2c-0.3,1.4-0.2,3.6,0.9,5.4c2.2,4,5.4,6.7,8.5,9c3.1,2.3,6.3,4.3,9.1,6.3   l1.2,0.9c0.6,0.5,1.5,1.1,2.3,1.3c0.8,0.2,1.7,0.3,2.6,0c0.4-0.1,0.8-0.3,1.2-0.5l0.6-0.3l0.5-0.3c1.8-1.1,3.3-2.2,4.8-3.3l4.4-3.4   l2.2-1.6c0.8-0.6,1.6-1.2,2.3-1.8c1.5-1.2,2.9-2.6,4.2-4.3c1.2-1.7,2.2-3.8,2.6-5.9c0.9-4.2,0.1-8.7-2-12.3   C123.2,82.9,119.5,80.1,115.3,79.2z"/><path d="M161.4,99.6c-0.9,0-1.7,2.1-2.6,5.3c-0.9,3.2-2,7.5-3.5,12.1c-3.2,9.8-9.2,18.6-17,25.3c-7.8,6.7-17.5,11.1-27.7,12.3   c-10.2,1.3-20.7-0.4-30-4.7c-9.3-4.3-17.4-11.3-22.9-19.9c-9.2-14.2-11.4-32.6-6.1-48.6c1.3-4,3.2-7.8,5.3-11.5   c2.2-3.6,4.9-6.9,7.8-10c6-6,13.3-10.7,21.3-13.5c8-2.8,16.7-3.8,25.2-2.7l3.2,0.5l3.1,0.7l1.6,0.4l1.5,0.5l3,1l3,1.3l1.5,0.6   c0.5,0.2,0.9,0.5,1.4,0.8l2.8,1.5l2.7,1.8l1.3,0.9c0.4,0.3,0.8,0.7,1.3,1l2.5,2l2.4,2.2l1.2,1.1l1.1,1.2l2.2,2.4l2,2.6l1,1.3   l0.9,1.4l1.8,2.7l1.5,2.9l0.8,1.4l0.6,1.5l1.3,3l1,3.1l0.5,1.6l0.4,1.6l0.8,3.2l0.5,3.2l0.3,1.6l0.1,1.6v0   C160.5,98.4,161,99.6,161.4,99.6c0.4,0,0.7-1.2,0.7-3.5v0l0-1.7l-0.2-1.7l-0.4-3.4l-0.7-3.3l-0.3-1.7l-0.5-1.6l-1-3.3l-1.2-3.2   l-0.6-1.6l-0.7-1.5l-1.5-3.1l-1.7-2.9l-0.9-1.5l-1-1.4l-2-2.8l-2.2-2.6l-1.1-1.3l-1.2-1.2l-2.4-2.4l-2.6-2.2   c-0.4-0.4-0.9-0.7-1.3-1.1l-1.4-1c-0.9-0.7-1.9-1.3-2.8-2l-3-1.7c-0.5-0.3-1-0.6-1.5-0.9l-1.6-0.7l-3.1-1.5l-3.3-1.2l-1.6-0.6   l-1.7-0.4l-3.4-0.9l-3.4-0.6c-9.2-1.4-18.7-0.6-27.5,2.3c-8.9,2.9-17,7.8-23.7,14.4c-3.3,3.3-6.4,6.9-8.8,10.9   c-2.4,4-4.6,8.2-6.1,12.7c-6.1,17.8-3.8,38.3,6.5,54.1c6.2,9.7,15.2,17.5,25.7,22.3c10.4,4.8,22.2,6.7,33.6,5.2   c11.4-1.4,22.4-6.4,31.1-13.8c8.7-7.4,15.4-17.3,19-28.2c1.7-5.2,2.2-10.2,1.9-13.7C163.1,101.7,162.2,99.6,161.4,99.6z"/><path d="M139,99.6c-0.9,0-1.7,1.3-2.5,3.2c-0.8,1.9-1.5,4.4-2.4,7.1c-1.9,5.7-5.6,10.8-10.3,14.7c-4.7,3.8-10.5,6.4-16.5,7.3   c-6,0.9-12.3,0.1-17.7-2.4c-5.5-2.5-10.2-6.7-13.5-11.8c-1.4-2.1-2.5-4.3-3.3-6.7c-0.9-2.3-1.4-4.8-1.6-7.2c-0.3-2.5-0.2-5,0.1-7.5   c0.3-2.5,0.9-4.9,1.7-7.3c3.3-9.5,10.7-17.7,20.2-21.2c4.7-1.7,9.9-2.3,15-1.6c5.1,0.6,10,2.5,14.3,5.3c4.3,2.8,8,6.7,10.7,11.2   c2.6,4.5,4.5,9.6,5,14.9v0C138.2,98.9,138.7,99.6,139,99.6c0.4,0,0.7-0.7,0.7-2.2v0c-0.1-5.6-1.6-11.1-4.2-16.2   c-2.6-5-6.4-9.5-11-12.9c-4.6-3.4-10-5.9-15.8-6.8c-5.7-1-11.7-0.6-17.4,1.2c-5.6,1.8-10.8,5.1-14.9,9.3c-2.1,2.1-3.9,4.4-5.5,6.9   c-1.6,2.5-2.9,5.1-3.9,7.9c-1,2.8-1.8,5.7-2.1,8.6c-0.4,2.9-0.5,5.9-0.2,8.9c0.3,3,0.9,5.9,1.9,8.7c1,2.8,2.3,5.6,3.9,8   c3.9,6.1,9.5,11.2,16.2,14.2c6.7,3.1,14.2,4,21.4,2.9c7.2-1.1,14-4.1,19.7-8.6c5.7-4.5,10.1-10.7,12.4-17.7   c1.1-3.3,1.2-6.5,0.8-8.8C140.7,100.9,139.9,99.6,139,99.6z"/><path d="M185,61l0-4.6l0-2.7l0-1.4l0-0.3c0-0.1,0-0.1-0.1-0.2l-0.2-0.3l-1.3-2.3l-0.3-0.6c0-0.1-0.3,0-0.4-0.1l-0.5,0   c-0.6,0-1.3,0.1-1.9,0.2c-1.2,0.2-2.3,0.7-3.3,1.4c-1,0.7-1.8,1.7-2.5,3c-0.7,1.3-1.2,2.9-1.5,4.7l-0.2,1.2l-0.1,0.7l-0.2,1.4   c-1.1,7.6-1.4,15.4-1.9,22.9c-0.2,3.8-0.3,7.8,0.8,11.8c0.6,2,1.5,4,3.2,5.4c1.2,1.1,2.6,1.7,4.1,2.1v36.1c0,4.4,1.5,8,3.2,8   c1.8,0,3.2-3.6,3.2-8V83.9C185.1,76.2,185.1,68.6,185,61z M176.1,99.8c-1.1-1.2-1.7-2.8-2-4.5c-0.6-3.4-0.2-7.1,0.2-10.8   c1-7.6,1.9-15,3.3-22.4l0.3-1.4L178,60l0-0.2l0,0l0-0.1c0.1-0.1,0.1-0.3,0.2-0.4c0.1-0.2,0.3-0.3,0.5-0.3c0.3,0,0.1,0.3,0.1,0.5   l0,0.2l0,0.1l0,0l0,0.3l0,0.7c-0.1,7.6-0.2,15.2-0.2,22.8v17.7C177.6,101.1,176.7,100.6,176.1,99.8z"/><path d="M34.6,51.6c-1.8,0-3.2,1.6-3.1,3.5c0.2,3.8,0.5,7.5,0.3,11c-0.1,1.7-0.3,3.5-0.7,5c-0.4,1.5-1,2.8-1.8,3.5   c-0.2,0.2-0.5,0.4-0.8,0.6c-0.4-7.5-0.9-15.1-1.5-22.6v0c-0.1-1.2-1.6-1.2-1.7,0v0c-0.7,7.6-1.1,15.2-1.5,22.7   c-0.7-0.3-1.3-0.8-1.9-1.6c-0.6-0.9-1.1-2.1-1.5-3.4c-0.8-2.6-1.1-5.7-1.3-8.7c-0.2-3-0.3-6.2-0.6-9.3c-0.1-0.8-1.5-0.8-1.7,0   c-1,6.1-2.5,12.2-1.6,19.1c0.3,1.7,0.7,3.5,1.7,5.3c0.5,0.9,1.1,1.8,1.9,2.5c0.8,0.7,1.7,1.4,2.8,1.9c0.6,0.3,1.2,0.5,1.9,0.6   c-0.4,8.9-0.6,17.8-0.6,26.8v34.2c0,2.7,1.5,4.9,3.2,4.9c1.8,0,3.2-2.2,3.2-4.9v-34.2c0-8.9-0.2-17.8-0.6-26.7   c1.8-0.4,3.6-1.2,5-2.6c2-1.9,3-4.3,3.5-6.4c0.6-2.2,0.8-4.3,0.9-6.3c0.2-4.1-0.1-8-0.3-11.8C37.9,53,36.4,51.7,34.6,51.6z"/></g><text x="0" y="215" fill="#000000" font-size="5px" font-weight="bold" font-family="'Helvetica Neue', Helvetica, Arial-Unicode, Arial, Sans-serif">Created by Symbolon</text><text x="0" y="220" fill="#000000" font-size="5px" font-weight="bold" font-family="'Helvetica Neue', Helvetica, Arial-Unicode, Arial, Sans-serif">from the Noun Project</text></svg>