<svg xmlns="http://www.w3.org/2000/svg" xmlns:xlink="http://www.w3.org/1999/xlink" version="1.1" x="0px" y="0px" viewBox="0 0 200 250" style="enable-background:new 0 0 200 200;" xml:space="preserve"><g><path d="M71.8,126.9c-1.8,0-3.2,1.4-3.2,3V151c0,11.5,0.8,23,2.4,34.5v0c0.1,0.8,1.6,0.8,1.7,0v0c1.6-11.5,2.4-23,2.4-34.5v-21.1   C75,128.2,73.6,126.9,71.8,126.9z"/><path d="M100.9,127.4c-0.1-0.8-1.6-0.8-1.7,0v0c-1.6,11.5-2.4,23-2.4,34.5V183c0,1.7,1.4,3,3.2,3s3.2-1.4,3.2-3v-21.1   C103.3,150.4,102.5,138.9,100.9,127.4L100.9,127.4z"/><path d="M128.4,126.9c-1.8,0-3.2,1.4-3.2,3V151c0,11.5,0.8,23,2.4,34.5v0c0.1,0.8,1.6,0.8,1.7,0v0c1.6-11.5,2.4-23,2.4-34.5v-21.1   C131.7,128.2,130.2,126.9,128.4,126.9z"/><path d="M133.7,104.2c-13.3-1.6-26.6-2.4-39.9-2.4H69.4c-1.9,0-3.5,1.4-3.5,3.2c0,1.8,1.6,3.2,3.5,3.2h24.4   c13.3,0,26.7-0.8,39.9-2.4C134.6,105.8,134.6,104.3,133.7,104.2z"/><path d="M130.8,114.3h-24.4c-13.3,0-26.7,0.8-39.9,2.4c-0.9,0.1-0.9,1.6,0,1.7c13.3,1.6,26.6,2.4,39.9,2.4h24.4   c1.9,0,3.5-1.4,3.5-3.2C134.3,115.8,132.8,114.3,130.8,114.3z"/><path d="M48.2,30.6c20.5,1.6,41.1,2.4,61.7,2.4h37.7c3,0,5.4-1.4,5.4-3.2c0-1.8-2.4-3.2-5.4-3.2h-37.7c-20.6,0-41.2,0.8-61.7,2.4h0   C46.9,29,46.9,30.5,48.2,30.6L48.2,30.6z"/><path d="M160.3,16.4L160.3,16.4c-23.8-1.6-47.6-2.4-71.5-2.4H45c-3.5,0-6.3,1.4-6.3,3.2c0,1.8,2.8,3.2,6.3,3.2h43.7   c23.9,0,47.8-0.8,71.5-2.4h0C161.8,18,161.8,16.5,160.3,16.4z"/><path d="M156.7,52.7c-1.4-2.3-3.3-4.2-5.3-5.9c-2-1.7-4.4-3-6.8-4c-2.4-1-4.9-1.7-7.5-2c-2.6-0.4-5.2-0.4-7.7-0.1   c-0.2,0-0.4,0.1-0.6,0.1c-11.6-1.3-23.2-1.9-34.9-1.9H69.9c-1.2,0-2.3,0.6-2.9,1.6c-3-0.1-6,0.2-9,1.1c-4,1.1-7.9,3.1-11,6   c-3.2,2.9-5.6,6.6-7,10.7c-1.3,4.1-1.7,8.3-1.4,12.5c0.4,4.2,1.7,8.5,4.1,12.1c1.4,2.3,3.3,4.2,5.3,5.9c2,1.7,4.4,3,6.8,4   c2.4,1,4.9,1.7,7.5,2c2.6,0.4,5.2,0.4,7.7,0.1c2.6-0.3,5.1-0.9,7.5-1.9c2.4-0.9,4.8-2.2,6.8-3.9c1.1-0.8,2-1.7,3-2.7   c0.9-1,1.8-2,2.5-3.1c1.5-2.2,2.6-4.7,3.4-7.2c0.7-2.4,0.6-4.7,0.2-6.3c-0.5-1.6-1.3-2.5-2.2-2.5c-0.9,0-1.7,0.9-2.4,2.2   c-0.7,1.3-1.3,3-1.8,4.8c-0.6,1.9-1.4,3.8-2.5,5.4c-0.5,0.9-1.2,1.6-1.8,2.3c-0.7,0.7-1.4,1.4-2.2,2c-1.6,1.2-3.3,2.2-5.2,3   c-1.9,0.7-3.9,1.3-5.9,1.5c-2,0.2-4.1,0.2-6.1-0.1c-2-0.3-4-0.8-5.9-1.6c-1.9-0.8-3.6-1.8-5.2-3c-1.6-1.2-2.9-2.7-4-4.4   c-1.8-2.7-2.8-5.9-3.2-9.2c-0.3-3.4-0.1-6.9,0.9-10c1.9-6.4,7.1-11.5,13.6-13.6c3.1-1.1,6.5-1.5,9.8-1.2c0.2,0,0.3,0.1,0.5,0.1h0.1   c3.4,0.3,6.7,1.3,9.6,3c3,1.7,5.6,4.2,7.4,7.3c1.8,3.1,2.9,6.6,3.2,10.3v0c0.2,1.9,1.6,2,1.7-0.1v0c0-3.9-0.7-7.9-2.4-11.5   c-1.6-3.6-4.3-6.7-7.6-8.9h11.9c8.1,0,16.1-0.3,24.1-0.9c-1.1,0.6-2.1,1.3-3.1,2.1c-1.1,0.8-2,1.7-3,2.7c-0.9,1-1.8,2-2.5,3.1   c-1.5,2.2-2.6,4.7-3.4,7.2c-0.7,2.4-0.6,4.7-0.2,6.3c0.5,1.6,1.3,2.5,2.2,2.5c0.9,0,1.7-0.9,2.4-2.2c0.7-1.3,1.3-3,1.8-4.8   c0.6-1.9,1.4-3.8,2.5-5.4c0.5-0.9,1.2-1.6,1.8-2.3c0.7-0.7,1.4-1.4,2.2-2c1.6-1.2,3.3-2.2,5.2-3c1.9-0.7,3.9-1.3,5.9-1.5   c2-0.2,4.1-0.2,6.1,0.1c2,0.3,4,0.8,5.9,1.6c1.9,0.8,3.6,1.8,5.2,3c1.6,1.2,2.9,2.7,4,4.4c1.8,2.7,2.8,5.9,3.2,9.2   c0.3,3.4,0.1,6.9-0.9,10c-1.9,6.4-7.1,11.5-13.6,13.6c-3.2,1.1-6.8,1.5-10.2,1.2c-3.5-0.3-6.9-1.2-9.9-3c-3-1.7-5.6-4.2-7.4-7.3   c-1.8-3.1-2.9-6.6-3.2-10.3l0,0c-0.1-1-0.5-1.5-0.9-1.4c-0.4,0-0.8,0.5-0.8,1.5v0c0,3.9,0.7,7.9,2.4,11.5c1.7,3.7,4.5,6.8,7.9,9.1   c3.4,2.3,7.3,3.8,11.4,4.4c4.1,0.6,8.3,0.4,12.3-0.7c4-1.1,7.9-3.1,11-6c3.2-2.9,5.6-6.6,7-10.7c1.3-4.1,1.7-8.3,1.4-12.5   C160.4,60.7,159.1,56.4,156.7,52.7z"/><path d="M122.2,68.3c0.9,0,1.7-0.4,2.3-0.8c0.6-0.5,1.1-1,1.3-1.6c0.4-1.3,1.2-2.4,2.2-3.2c1.1-0.8,2.5-1.4,3.9-1.5   c3-0.4,6.1,0.9,7.4,3.1c0.6,0.9,1,2,1.1,3.2c0.1,1.2,0.1,2.5-0.2,3.6c-0.6,2.2-2.3,4-4.7,4.9c-2.4,0.9-5.3,0.9-7.8-0.3   c-2.5-1.1-4.2-3.6-4.7-6.7C123,68.5,122.6,68.3,122.2,68.3c-0.4,0-0.8,0.2-0.8,0.7v0c-0.1,1.7,0.1,3.6,0.8,5.3   c0.7,1.8,2,3.3,3.6,4.5c3.2,2.3,7.3,3.1,11.2,2.1c1.9-0.5,3.9-1.4,5.5-2.8c1.6-1.4,2.9-3.2,3.6-5.3c0.7-2,0.9-4.1,0.8-6.2   c-0.2-2.1-0.8-4.2-2.1-6.1c-1.5-2.3-3.7-4-6.1-5c-2.4-1-5-1.3-7.5-1c-2.5,0.3-5,1.2-7.1,2.8c-2.1,1.6-3.8,4-4.5,6.5   c-0.4,1.2-0.2,2.4,0.4,3.2C120.5,67.9,121.3,68.3,122.2,68.3z"/><path d="M78.1,66.7L78.1,66.7c0.1-1.7-0.1-3.6-0.8-5.3c-0.7-1.8-2-3.3-3.6-4.5c-3.2-2.3-7.3-3.1-11.2-2.1c-1.9,0.5-3.9,1.4-5.5,2.8   c-1.6,1.4-2.9,3.2-3.6,5.3c-0.7,2-0.9,4.1-0.8,6.2c0.2,2.1,0.8,4.2,2.1,6.1c1.5,2.3,3.7,4,6.1,5c2.4,1,5,1.3,7.5,1   c2.5-0.3,5-1.2,7.1-2.8c2.1-1.6,3.8-4,4.5-6.5c0.4-1.2,0.2-2.4-0.4-3.2c-0.5-0.8-1.3-1.2-2.2-1.2c-0.9,0-1.7,0.4-2.3,0.8   c-0.6,0.5-1.1,1-1.3,1.6c-0.4,1.3-1.2,2.4-2.2,3.2c-1.1,0.8-2.5,1.4-3.9,1.5c-3,0.4-6.1-0.9-7.4-3.1c-0.6-0.9-1-2-1.1-3.2   c-0.1-1.2-0.1-2.5,0.2-3.6c0.6-2.2,2.3-4,4.7-4.9c2.4-0.9,5.3-0.9,7.8,0.3c2.5,1.1,4.2,3.6,4.7,6.7c0.1,0.4,0.5,0.6,0.9,0.6   C77.7,67.4,78.1,67.2,78.1,66.7z"/></g><text x="0" y="215" fill="#000000" font-size="5px" font-weight="bold" font-family="'Helvetica Neue', Helvetica, Arial-Unicode, Arial, Sans-serif">Created by Symbolon</text><text x="0" y="220" fill="#000000" font-size="5px" font-weight="bold" font-family="'Helvetica Neue', Helvetica, Arial-Unicode, Arial, Sans-serif">from the Noun Project</text></svg>