<svg xmlns="http://www.w3.org/2000/svg" xmlns:xlink="http://www.w3.org/1999/xlink" version="1.1" x="0px" y="0px" viewBox="0 0 200 250" style="enable-background:new 0 0 200 200;" xml:space="preserve"><g><path d="M174.9,119c-0.1-2.4-0.6-4.8-1.3-7.2c-0.8-2.3-1.9-4.6-3.4-6.6c-2.9-4.1-7.1-7.2-11.8-8.8c-2.4-0.8-4.9-1.2-7.4-1.2   c-0.3,0-0.6,0-1,0l-0.5,0l-0.6,0.1c-0.8,0.1-1.5,0.3-2.1,0.4c-1.3,0.4-2.4,0.8-3.3,1.2c-1.9,0.8-3,1.5-3.8,2.2   c-0.8,0.7-1.6,1.2-2,2.1c-0.2,0.4-0.1,0.9,0.2,1.5c0.4,0.5,1.1,1,2,1.3c0.9,0.3,2,0.3,3.1,0.2c1.1-0.1,2.1-0.5,3.1-0.8   c1-0.4,1.9-0.8,2.7-1c0.4-0.1,0.7-0.2,1-0.2l0.2,0l0.3,0l0.7,0c1.7,0,3.5,0.3,5.2,0.9c3.4,1.2,6.4,3.4,8.5,6.3   c1,1.5,1.8,3.1,2.4,4.8c0.5,1.7,0.9,3.5,1,5.4c0.3,3.7-0.5,7.6-1.7,11.3c-1.1,3.1-2.5,5.9-4.3,8.7c-1.8,2.8-3.9,5.6-6,8.2   c-2.1,2.6-4.4,5.1-6.8,7.4c-2.4,2.2-5.1,4.2-7.7,5.2c-1.3,0.5-2.5,0.6-3.6,0.3c-0.7-0.2-1.4-0.4-2.1-0.7l-1.1-0.4l-1.1-0.6   c-2.8-1.5-5.5-3.6-8-5.9c-5-4.6-9.5-10-13.2-15.8v0c-0.9-1.5-2.3-0.9-1.6,0.8v0c3,6.5,7.1,12.4,11.9,17.8c2.4,2.7,5.1,5.2,8.3,7.3   l1.2,0.8c0.4,0.2,0.9,0.4,1.3,0.7c0.9,0.5,1.8,0.8,2.8,1.1c2.2,0.7,4.7,0.5,6.7-0.1c4.1-1.2,7.2-3.5,10.1-5.9   c2.9-2.4,5.4-5,7.8-7.8c2.4-2.8,4.6-5.6,6.7-8.7c2.1-3.1,3.9-6.6,5.1-10.2C174.4,128.5,175.3,123.8,174.9,119z"/><path d="M117.8,123.2c6.6-7.4,9.7-15.1,8.1-16.1v0c-1.6-1-7,4.6-13.2,11.5c-3.3,3.7-6.8,7.2-10.5,10.4c-1.8,1.6-3.8,3.2-5.8,4.8   c-1.9,1.6-3.8,3.2-5.7,4.6c-1.9,1.4-3.8,2.5-5.7,3.1c-1.9,0.6-3.6,0.7-5.3,0.1l-0.6-0.2l-0.6-0.3l-0.6-0.3l-0.8-0.5l-3.1-2   c-2-1.4-4.1-2.8-6-4.3c-7.9-5.9-15.1-12.8-21.1-20.4c-3-3.9-5.7-7.9-8-12.2c-2.2-4.3-4-8.8-5.3-13.4c-2-7.5-2.2-15.5-0.4-23   c0.3-0.9,0.4-1.9,0.8-2.8l1-2.7c0.8-1.7,1.6-3.5,2.6-5.1c2-3.2,4.4-6.1,7.4-8.4c5.9-4.4,13.7-6.7,21.2-5.9c1.9,0.2,3.7,0.6,5.5,1.1   c1.7,0.5,3.3,1.4,5.5,2.3c1.1,0.4,2.3,0.9,3.7,1c1.4,0.2,2.8,0.1,4.1-0.2c1.4-0.4,2.2-0.7,3.2-1l2.9-1c3.9-1.3,7.7-2.4,11.4-2.6   c3.7-0.2,7.5,0.5,11,2c7.2,2.9,13.3,8.3,16.6,15.4c3.5,7.1,4.5,15.3,3.8,23.3c-0.7,8-3.1,16-7,23.1l0,0c-2.1,3.7-0.9,4.6,1.5,0.9   l0,0c4.4-7.1,7.3-15.3,8.4-23.7c1.1-8.4,0.5-17.3-3.1-25.3c-1.7-4-4.3-7.7-7.4-10.9c-3.1-3.2-6.9-5.6-10.9-7.4   c-4-1.9-8.6-2.9-13.1-2.8c-4.6,0.1-8.9,1.3-12.9,2.5l-3,0.9c-0.9,0.3-2.1,0.7-2.7,0.8c-1.5,0.3-2.6,0.1-4.3-0.6   c-1.6-0.7-3.7-1.8-5.9-2.6c-2.2-0.7-4.4-1.2-6.6-1.5c-9.1-1.2-18.4,1.4-25.8,6.8c-3.7,2.7-6.7,6.3-9.1,10.1c-1.3,1.9-2.2,4-3.1,6   l-1.2,3.2c-0.4,1.1-0.6,2.2-0.9,3.2c-2.2,8.7-2,17.8,0.3,26.4c1.4,5.2,3.4,10.2,5.8,14.9c2.5,4.7,5.4,9.1,8.6,13.2   c6.5,8.2,14.1,15.5,22.4,21.7c2.1,1.6,4.2,3,6.4,4.5l3.3,2.1l0.8,0.5l1.1,0.6l1.1,0.5c0.4,0.1,0.8,0.3,1.2,0.4   c3.1,1.1,6.7,0.9,9.6-0.1c2.9-1,5.4-2.5,7.6-4.1c2.2-1.6,4.2-3.3,6.2-4.9c1.9-1.6,3.9-3.2,5.9-4.9   C110.7,130.8,114.4,127.1,117.8,123.2z"/></g><text x="0" y="215" fill="#000000" font-size="5px" font-weight="bold" font-family="'Helvetica Neue', Helvetica, Arial-Unicode, Arial, Sans-serif">Created by Symbolon</text><text x="0" y="220" fill="#000000" font-size="5px" font-weight="bold" font-family="'Helvetica Neue', Helvetica, Arial-Unicode, Arial, Sans-serif">from the Noun Project</text></svg>