<svg xmlns="http://www.w3.org/2000/svg" xmlns:xlink="http://www.w3.org/1999/xlink" version="1.1" x="0px" y="0px" viewBox="0 0 200 250" style="enable-background:new 0 0 200 200;" xml:space="preserve"><g><path d="M164.9,162.9l-5.5-7.1l-11.1-14.2l-2.8-3.5c-0.9-1.1-1.7-2.3-2.5-3.5c-1.7-2.5-3.3-5-5.1-7.4c-1.9-2.4-3.9-4.9-6.6-6.6   c-1.4-0.9-3-1.5-4.6-1.6c-1.6-0.2-3.1-0.1-4.6,0l0,0c-1.8,0.1-2.7,0.5-2.7,0.9c0,0.4,0.9,0.8,2.7,0.8h0c1.5,0,3,0,4.3,0.2   c1.3,0.2,2.5,0.7,3.7,1.5c2.2,1.6,4,3.9,5.6,6.3c1.6,2.4,3.1,5,4.6,7.6c0.8,1.3,1.6,2.6,2.5,3.9l2.6,3.7l10.4,14.6l5.2,7.3l1.3,1.8   l0.3,0.5l0.5,0.9l-1.4-0.1c0.1,0-1.3,0-2.2,0l-2.9,0l-11.8-0.2c-7.9-0.1-15.7-0.2-23.6-0.3c-15.7-0.1-31.5-0.2-47.2-0.2H40.2   l14.1-18.9l4.5-6.1c0.8-1,1.5-2,2.3-3.2c0.8-1.1,1.5-2.2,2.2-3.3c2.7-4.3,5.3-8.6,8.5-11.5c1.3-1.1,2.1-1.7,3.3-2.1   c1.1-0.4,2.6-0.7,3.9-0.9c2.6-0.5,4.4-1.4,4.3-2.3c0-0.9-1.5-1.8-4.2-2.5c-1.3-0.3-3.1-0.7-5.4-0.4c-1.1,0.2-2.4,0.5-3.5,1.1   c-1.2,0.6-2.2,1.4-3,2.1c-2.2,2-3.9,4.2-5.4,6.4c-1.5,2.2-2.9,4.4-4.2,6.5c-0.7,1-1.3,2.1-2,3.1c-0.7,0.9-1.4,2-2.2,3l-4.5,6.1   L26.4,175H74c15.7,0,31.5-0.1,47.2-0.2c17.5-0.2,34.9-0.4,52.4-0.6L164.9,162.9z"/><path d="M100.8,136.4c0.4,0.1,1-0.6,1.4-2.2v0c1.3-4.8,2.7-9.6,4.3-14.4c2.3-7.1,4.8-14.1,7.6-20.9c2.3-5.7,4.9-11.4,7.6-17   c1.4-2.8,2.8-5.5,4.2-8.4c1.4-2.9,2.8-5.9,3.8-9c1-3.2,1.7-6.6,1.7-10.1c0-3.5-0.7-7-2-10.3c-1.3-3.2-3.2-6.2-5.5-8.8   c-2.3-2.6-5.1-4.8-8.2-6.5c-6.1-3.4-13.5-4.7-20.4-3.4c-6.9,1.3-13.3,5-18,10.3C74.4,39,72.3,42.8,71,47c-1.2,4.2-1.4,8.7-0.7,12.9   c1.5,8.4,5.6,15.4,8.6,22.1c5.7,12.2,10.4,24.9,14.1,37.8c0.5,1.6,0.9,3.1,1.3,4.7C96.2,131.5,98.9,136.8,100.8,136.4z M80.4,68.8   c-1.4-3.4-2.7-6.7-3.2-10.1c-0.6-3.3-0.4-6.6,0.5-9.8c1-3.2,2.6-6.2,4.8-8.7c3.6-4.1,8.6-7.1,14-8.1c5.4-1.1,11.1-0.1,16,2.4   c2.4,1.3,4.7,3,6.6,5c1.9,2,3.4,4.4,4.5,6.9c2.3,5.1,2.3,10.8,0.7,16.4c-0.8,2.8-1.9,5.6-3.2,8.4c-1.3,2.8-2.6,5.7-3.9,8.6   c-2.5,5.8-4.8,11.7-6.9,17.6c-3.4,9.7-6.2,19.6-8.4,29.6c-0.2-1.4-0.5-2.8-0.9-4.3c-4-14.9-9.3-29.6-15.8-43.6   C83.6,75.6,81.8,72.2,80.4,68.8z"/><path d="M101.7,65.4c1.7-0.2,3.4-0.7,4.8-1.9c1.4-1.1,2.7-2.7,3.1-4.5c0.3-0.8,0-1.6-0.6-2.2c-0.6-0.5-1.4-0.8-2.4-0.8   c-0.9,0-1.8,0.2-2.5,0.4c-0.7,0.2-1,0.4-1.1,0.5c-0.1,0.5-0.4,0.7-0.7,1c-0.3,0.3-0.9,0.5-1.4,0.5c-1.2,0.2-2.3-0.4-2.7-1   c-0.1-0.1-0.2-0.3-0.2-0.5c0-0.1-0.1-0.2-0.1-0.3c0-0.1,0-0.2,0-0.3c0-0.1,0-0.2-0.1-0.4c0-0.1,0-0.2,0-0.4c0-0.1,0-0.2,0-0.4   c0-0.1,0.1-0.2,0.1-0.3c0.1-0.8,0.5-1.5,1.5-2c2-1,5.3-0.7,6.4,2.7c0.1,0.2,0.5,0.3,0.9,0.3c0.4,0,0.8-0.1,0.8-0.4v0   c0.2-1,0.1-2.2-0.3-3.3l-0.3-0.8c-0.2-0.3-0.3-0.5-0.5-0.8c-0.3-0.5-0.8-0.9-1.3-1.4c-2-1.6-4.6-2.1-7.2-1.7   c-0.7,0.1-1.3,0.4-1.9,0.6c-0.6,0.3-1.2,0.7-1.8,1.1c-0.5,0.5-1.1,1-1.5,1.6c-0.2,0.3-0.4,0.6-0.6,0.9c-0.2,0.3-0.3,0.7-0.4,1   c-0.1,0.3-0.3,0.7-0.3,1l-0.1,1c0,0.3-0.1,0.7-0.1,1l0.1,1c0,0.3,0.1,0.7,0.1,1c0.1,0.4,0.2,0.7,0.3,1.1c0.2,0.7,0.6,1.4,1,2   c1,1.5,2.6,2.8,4.2,3.4C98.3,65.4,100,65.6,101.7,65.4z"/></g><text x="0" y="215" fill="#000000" font-size="5px" font-weight="bold" font-family="'Helvetica Neue', Helvetica, Arial-Unicode, Arial, Sans-serif">Created by Symbolon</text><text x="0" y="220" fill="#000000" font-size="5px" font-weight="bold" font-family="'Helvetica Neue', Helvetica, Arial-Unicode, Arial, Sans-serif">from the Noun Project</text></svg>