<svg xmlns="http://www.w3.org/2000/svg" xmlns:xlink="http://www.w3.org/1999/xlink" version="1.1" x="0px" y="0px" viewBox="0 0 200 250" style="enable-background:new 0 0 200 200;" xml:space="preserve"><g><path d="M167.6,110.8c-2.1-0.8-4.1-1.7-6.3-2.5l-3.6-1.3c-4.4-1.6-8.9-3-13.4-4.3c-7.3-2-14.8-3.5-22.4-4.2   c-3.8-0.3-7.7-0.4-11.6-0.2c-3.9,0.2-7.7,0.8-11.5,1.6c-3.8,0.9-7.5,2.1-11.1,3.6c-3.6,1.5-7,3.4-10.3,5.5   c-6.5,4.3-12.3,9.5-17.3,15.3c-3.4,4-5.4,8.1-5.7,10.5c-3.6,2.2-7.1,4.7-10.4,7.4c-1.4,1.2-1.5,3.3-0.3,4.7v0   c1.3,1.3,3.3,1.5,4.6,0.4c3.5-2.9,7.3-5.5,11.3-7.8c8.2,3.3,17,5.5,26.1,5.7c10.1,0.3,20.2-2.2,29.5-5.9c9.3-3.7,18.1-8.2,27-12.1   c4.5-1.9,8.9-3.7,13.5-5.3c1.1-0.4,2.3-0.8,3.4-1.1l2.2-0.7c1.2-0.3,2.3-0.7,3.6-0.9l7.5-1.8l7.5-1.7L167.6,110.8z M158.6,114.4   L158.6,114.4L158.6,114.4l-0.5,0.2l-0.9,0.3c-1.2,0.4-2.4,0.8-3.6,1.2c-4.7,1.7-9.4,3.7-13.9,5.8c-9,4.2-17.6,9-26.4,12.9   c-8.8,3.9-18.1,6.7-27.6,6.9c-8,0.3-16.1-1.1-23.8-3.5c1.5-0.8,3.1-1.6,4.7-2.4c10.7-5.1,22.2-9.3,33.5-14.3   c0.7-0.3,0.3-1.8-0.5-1.6c-11.9,1.8-23.8,4.3-35.1,9.5c0.2-0.2,0.4-0.5,0.6-0.7c4.6-5.5,10-10.2,15.8-14.1c3-1.9,6-3.6,9.3-4.9   c3.2-1.3,6.6-2.4,10-3.2c3.4-0.7,6.9-1.2,10.5-1.4c3.5-0.2,7.1-0.1,10.6,0.2c7.1,0.6,14.2,2,21.2,3.9c4.3,1.2,8.7,2.6,12.9,4.1   l2.9,1l0.1,0c0,0,0.1,0,0.2,0C158.7,114.3,158.6,114.3,158.6,114.4z"/><path d="M45.7,100.7c2.3,0,4.6-0.3,6.9-0.5c4.6-0.7,9.1-1.9,13.4-3.8c4.3-1.9,8.3-4.7,11.7-8c1.8-1.6,3.2-3.5,4.6-5.3   c1.2-2,2.6-3.9,3.6-6c0.5-1,0.9-2,1.1-2.9c0.2-0.9,0.3-1.8,0.2-2.6c0-0.9-0.2-1.6-0.5-2.1c0.5-0.1,1.1-0.3,1.6-0.4   c3.2-1,6.1-2.7,8.4-5.1h0c1.4-1.4,0.2-2.4-1.1-1.3h0c-2.4,1.9-5.1,3.1-8,3.7c-2.9,0.6-5.9,0.7-9,0.6c-3.1,0-6.3-0.2-9.6,0.1   c-3.3,0.3-6.8,1-9.9,2.5c-6.3,2.8-11.2,7.6-15.7,12c-2.3,2.2-4.4,4.4-6.7,6.3c-0.3,0.3-0.6,0.5-0.9,0.7l-0.4,0.4   c-0.3,0.2-0.6,0.5-0.9,0.7c-0.6,0.5-1.4,0.9-2.1,1.4l-2.2,1.4L29,93l-1.3,0.7L25,95.2l-5,2.7c3,0.5,6,0.9,9.1,1.4   c3.1,0.5,6.3,0.8,9.5,1.2c0.3,0,0.6,0.1,0.7,0.1l0.4,0l0.9,0l1.7,0.1C43.4,100.7,44.5,100.7,45.7,100.7z M39.6,93.9   C39.6,93.9,39.6,93.9,39.6,93.9C39.5,93.9,39.5,93.9,39.6,93.9C39.5,93.9,39.5,93.8,39.6,93.9C39.5,93.8,39.5,93.8,39.6,93.9   l0.4-0.5c0.3-0.3,0.6-0.5,0.9-0.8c2.5-2.2,4.7-4.6,6.8-6.8c4.3-4.6,8.5-8.9,13.6-11.6c2.5-1.4,5.2-2.2,8.2-2.7   c2.9-0.5,6-0.6,9.2-0.9c1.2-0.1,2.5-0.2,3.8-0.4c-0.4,0.4-0.8,0.9-1.1,1.5c-0.5,0.7-1,1.5-1.4,2.3c-0.8,1.9-2,3.5-3.1,5.2   c-1.3,1.5-2.4,3.2-3.9,4.5c-2.8,2.7-6.1,5.1-9.7,6.7c-3.6,1.6-7.6,2.7-11.6,3.3c-2,0.2-4.1,0.5-6.1,0.5c-1,0-2.1,0.1-3.1,0   L39.6,93.9z"/><path d="M107,53.6c2.2,1.6,4.6,2.9,7.3,3.8c0.5,0.1,0.9,0.3,1.4,0.4c-0.7,0.4-1.1,1.2-1.2,2.4c-0.1,0.7,0,1.4,0.1,2.2   c0.2,0.8,0.5,1.6,0.9,2.5c0.8,1.8,2,3.4,3.1,5.1c1.3,1.6,2.5,3.2,4,4.5c2.9,2.8,6.2,5.2,9.9,6.8c3.6,1.7,7.5,2.7,11.4,3.3   c1.9,0.2,3.9,0.5,5.8,0.5c1,0,1.9,0.1,2.9,0l1.4-0.1l0.9,0c0.4,0,0.9,0,1.3-0.1c2.6-0.4,5.2-0.7,7.9-1.1l7.6-1.2   c-4.7-3.1-11-7-13.6-9.6c-1.9-1.7-3.8-3.5-5.8-5.3c-3.9-3.6-8.2-7.3-13.5-9.8c-2.7-1.2-5.4-2-8.2-2.4c-2.8-0.5-5.6-0.5-8.2-0.5   c-2.6,0-5.1,0-7.6-0.4c-2.4-0.4-4.8-1.3-7.1-2.5l0,0C106.6,51.4,105.7,52.6,107,53.6z M129.9,60c2.4,0.6,4.7,1.5,6.8,2.7   c4.2,2.3,7.8,5.9,11.5,9.6c1.9,1.9,3.7,3.8,5.7,5.6l0.5,0.5c0.1,0.1,0,0.1,0.1,0.1c0,0,0,0,0,0c-0.1,0-0.1,0-0.1,0l-1.8,0.1   c-0.9,0.1-1.7,0-2.6,0c-1.7,0-3.4-0.2-5.1-0.4c-3.3-0.5-6.6-1.4-9.5-2.8c-3-1.3-5.7-3.3-8-5.5c-1.2-1.1-2.2-2.4-3.2-3.7   c-0.9-1.4-1.9-2.7-2.6-4.3c-0.4-0.7-0.8-1.3-1.2-1.9c-0.4-0.6-0.9-1.1-1.3-1.5c0,0,0,0-0.1,0c1.2,0.2,2.4,0.3,3.5,0.4   C125.1,59.1,127.6,59.4,129.9,60z"/></g><text x="0" y="215" fill="#000000" font-size="5px" font-weight="bold" font-family="'Helvetica Neue', Helvetica, Arial-Unicode, Arial, Sans-serif">Created by Symbolon</text><text x="0" y="220" fill="#000000" font-size="5px" font-weight="bold" font-family="'Helvetica Neue', Helvetica, Arial-Unicode, Arial, Sans-serif">from the Noun Project</text></svg>