<svg xmlns="http://www.w3.org/2000/svg" xmlns:xlink="http://www.w3.org/1999/xlink" version="1.1" x="0px" y="0px" viewBox="0 0 200 250" style="enable-background:new 0 0 200 200;" xml:space="preserve"><path d="M149.8,74.9L149.8,74.9c-2.4,4.1-4.4,8.5-6,13.1l-1.2,3.4l-0.5,1.6c-0.1,0.2-0.2,0.5-0.2,0.7c-0.3-4.9-1.4-9.8-3.4-14.3  c-2.4-5.6-6.2-10.6-10.9-14.6c-4.6-4.1-10.1-7.1-16-9.1c-5.9-2-12.1-3-18.3-2.7c-6.2,0.3-12.5,1.6-18.3,4.4  c-5.8,2.7-11,6.7-15.1,11.6c-4.1,4.9-7.1,10.7-9,16.8c-1.9,6.1-2.5,12.7-1.6,19.1c0.5,3.9,1.5,7.8,3.1,11.4  c1.5,3.6,3.4,7.1,5.8,10.2c1.1,1.6,2.4,3,3.7,4.5c1.4,1.4,2.7,2.8,4.2,4c2.9,2.5,6.2,4.7,9.6,6.5c3.4,1.9,7.1,3.3,10.8,4.3  c3.8,1.1,7.7,1.5,11.6,1.6c7.9,0.2,15.8-1.9,22.6-5.7c3.2-1.9,5.7-4.3,6.9-6.5c1.2-2.2,1.5-3.9,0.6-4.8c-0.9-0.9-2.7-0.8-4.7,0  c-2.1,0.7-4.6,2-7.2,3.5c-5.5,3-11.8,4.7-18.1,4.6c-3.2-0.1-6.3-0.4-9.4-1.3c-3.1-0.8-6.1-2-8.9-3.5c-11.4-6-20.1-17.3-21.7-29.8  c-0.7-5.1-0.2-10.4,1.2-15.4c1.5-5,3.8-9.9,7.1-13.9c3.3-4.1,7.4-7.4,12-9.8c4.6-2.5,9.9-3.8,15.2-4.3c5.3-0.5,10.8,0,16,1.5  c5.2,1.4,10.2,3.8,14.6,7.1c4.3,3.3,8.1,7.4,10.7,12.3c2,3.7,3.4,7.8,4.2,12c-4.7-2.6-9.8-5.2-14.8-7.4c-1.3-0.6-2.8,0.2-3.5,1.8  c-0.6,1.5-0.1,3.2,1.1,3.7c5.2,2.3,10.1,4.8,15.3,7.6l0.8,0.4c0.3,0.1,0.5,0.3,1,0.5c0.4,0.2,0.8,0.3,1.4,0.5  c0.6,0.2,1.1,0.3,1.7,0.3c2.3,0.1,4.1-1.8,4.7-3.8c0.3-1,0.5-1.5,0.6-2.1l0.4-1.8l0.7-3.5c0.9-4.6,1.8-9.2,2.7-13.8  C151.3,74.8,150.1,74.3,149.8,74.9z"/><text x="0" y="215" fill="#000000" font-size="5px" font-weight="bold" font-family="'Helvetica Neue', Helvetica, Arial-Unicode, Arial, Sans-serif">Created by Symbolon</text><text x="0" y="220" fill="#000000" font-size="5px" font-weight="bold" font-family="'Helvetica Neue', Helvetica, Arial-Unicode, Arial, Sans-serif">from the Noun Project</text></svg>