<svg xmlns="http://www.w3.org/2000/svg" xmlns:xlink="http://www.w3.org/1999/xlink" version="1.1" x="0px" y="0px" viewBox="0 0 200 250" style="enable-background:new 0 0 200 200;" xml:space="preserve"><path d="M173,99.5L173,99.5C173,99.5,173,99.5,173,99.5c0.4,0,0.7-1.4,0.6-4.3v0c-0.5-11-3.6-21.9-9.2-31.5  c-5.6-9.6-13.4-17.9-22.6-24.2C123.5,26.6,99,23,77.4,29.8c-1.4,0.3-2.7,0.9-4,1.4l-4,1.5l-3.8,1.9c-1.3,0.6-2.6,1.2-3.7,2  c-2.4,1.5-4.9,2.9-7.1,4.7c-1.1,0.9-2.3,1.7-3.4,2.6l-3.1,2.9c-2.2,1.8-3.9,4.1-5.9,6.1c-0.5,0.5-0.9,1.1-1.4,1.6l-1.3,1.7  c-0.8,1.1-1.7,2.2-2.5,3.4l-2.2,3.6L34,65.3l-1,1.9L31.1,71c-0.6,1.3-1,2.7-1.6,4c-0.5,1.3-1.1,2.7-1.4,4L27,83.2  c-0.2,0.7-0.4,1.4-0.5,2.1l-0.3,2.1l-0.7,4.2c-0.2,1.4-0.2,2.9-0.3,4.3c0,1.4-0.2,2.9-0.2,4.3l0.2,4.3l0.1,2.1  c0,0.7,0.2,1.4,0.3,2.1c1.5,11.4,5.8,22.3,12.2,31.7c1,1.4,2.1,2.8,3.2,4.2c0.5,0.7,1,1.4,1.6,2l1.8,1.9c1.2,1.2,2.3,2.6,3.6,3.8  l3.9,3.5c0.6,0.6,1.3,1.1,2,1.6l2.1,1.5l2.1,1.5c0.7,0.5,1.5,0.9,2.2,1.4l4.5,2.7l4.7,2.2c1.5,0.8,3.2,1.4,4.8,2l2.5,0.9  c0.8,0.3,1.6,0.6,2.5,0.8l5.1,1.3c0.8,0.2,1.7,0.4,2.6,0.5l2.6,0.4c3.4,0.7,6.9,0.7,10.4,0.9c1.7,0.1,3.5-0.1,5.2-0.2l2.6-0.1  c0.9,0,1.7-0.2,2.6-0.3l5.2-0.8c1.7-0.4,3.4-0.8,5.1-1.3c0.8-0.2,1.7-0.4,2.5-0.7l2.5-0.9c1.6-0.6,3.3-1.1,4.9-1.8  c6.4-2.8,12.4-6.4,17.8-10.7c1.3-1.1,2.6-2.3,3.9-3.4c0.6-0.6,1.3-1.1,1.9-1.8l1.8-1.9c1.2-1.3,2.4-2.5,3.5-3.9l3.2-4.1  c0.6-0.7,1-1.4,1.5-2.2l1.4-2.2l1.4-2.2c0.5-0.7,0.8-1.5,1.2-2.3c0.8-1.6,1.6-3.1,2.3-4.7l1.9-4.9c0.7-1.5,1-3.1,1.4-4.6  c0.4-1.5,0.7-3,1-4.4c0.3-2.9,0.5-5.4,0.4-7.6C174.6,102.1,173.9,99.5,173,99.5z M161.9,65.2c5.7,9,9.1,19.4,10,30.1v0  c0.1,1.7,0.4,2.9,0.6,3.6c-0.2-0.1-0.5-0.2-0.9-0.2c-13.4-0.8-26.9-1.4-40.4-1.8c0.4-16.5,6.4-32.9,17.4-45.9v0  c0.3-0.4,0.4-0.8,0.3-1.1C153.9,54.3,158.3,59.5,161.9,65.2z M148.3,49.3c-0.3,0-0.6,0-0.9,0.4h0c-8.3,7.2-14.8,16.6-18.7,27.2  c-2.4,6.3-3.7,13-4,19.8c-6.9-0.2-13.8-0.3-20.7-0.4c0-3.3,0.1-6.6,0.1-9.8V36c0-1.7-0.3-3.3-0.8-4.5c12.8,0.4,25.6,4.1,36.4,11.2  C142.7,44.7,145.6,46.9,148.3,49.3z M58.4,46.1c2-1.7,4.3-3,6.4-4.5c1.1-0.8,2.3-1.3,3.4-1.9l3.5-1.8l3.6-1.5  c1.2-0.5,2.4-1.1,3.7-1.4c6.1-2,12.5-3.2,18.9-3.5c-0.5,1.2-0.7,2.8-0.7,4.5v50.4c0,3.3,0.1,6.5,0.1,9.8c-3.4,0-6.7-0.1-10.1-0.1  H76.6c-0.1-2.5-0.3-4.9-0.7-7.4c-0.4-3.5-1.3-6.8-2.1-10.1c-0.5-1.6-1.1-3.3-1.7-4.9c-0.3-0.8-0.6-1.6-0.9-2.4l-1.1-2.4  c-2.7-6.4-6.7-12.1-11.2-17.4c-1.3-1.4-2.7-2.2-4-2.5l0.4-0.4C56.4,47.7,57.4,47,58.4,46.1z M32,92.3l0.6-3.8l0.3-1.9  c0.1-0.6,0.3-1.3,0.5-1.9l1-3.8c0.3-1.3,0.9-2.5,1.3-3.7c0.5-1.2,0.8-2.5,1.4-3.6l1.7-3.5l0.8-1.8l1-1.7l2-3.4  c0.7-1.1,1.5-2.1,2.3-3.2l1.2-1.6c0.4-0.5,0.8-1.1,1.2-1.5c1.6-1.7,3-3.5,4.7-5.1c0.1,1.3,0.8,2.8,2,4.1c4,4.8,7.7,10,10.1,15.8  l1,2.1c0.3,0.7,0.5,1.5,0.8,2.2c0.5,1.5,1.1,3,1.5,4.5c0.7,3.1,1.6,6.1,1.9,9.2c0.3,2.1,0.5,4.3,0.7,6.4H35.7  c-1.5,0-2.8,0.2-3.9,0.5c0-0.1,0-0.3,0-0.4C31.9,94.9,31.8,93.6,32,92.3z M49.4,144l-1.6-1.7c-0.5-0.6-1-1.2-1.5-1.9  c-1-1.3-2-2.5-2.9-3.8c-5.9-8.6-9.8-18.5-11.2-28.8c-0.1-0.6-0.3-1.3-0.3-1.9l-0.1-1.9l-0.1-1.6c1.1,0.3,2.5,0.5,3.9,0.5H70  c-0.5,16.1-6.4,32-17.1,44.8l-0.3-0.3C51.5,146.4,50.5,145.1,49.4,144z M88.2,165.6c-0.8-0.1-1.6-0.2-2.3-0.5l-4.6-1.2  c-0.8-0.2-1.5-0.4-2.3-0.7l-2.2-0.8c-1.5-0.5-3-1-4.4-1.8l-4.3-2l-4.1-2.4c-0.7-0.4-1.4-0.8-2-1.3l-1.9-1.4l-1.9-1.4  c-0.6-0.5-1.3-0.9-1.9-1.5l-1.9-1.7c8-7.1,14.4-16.4,18.2-26.7c2.3-6.1,3.6-12.7,4-19.3h10.7c3.4,0,6.8-0.1,10.1-0.1  c0.3,21.4,1,42.7,2.3,64c-3-0.2-6.1-0.2-9.1-0.8L88.2,165.6z M127.8,161.2c-1.4,0.6-3,1.1-4.5,1.7l-2.2,0.8  c-0.8,0.2-1.5,0.4-2.3,0.6c-1.5,0.4-3.1,0.8-4.6,1.2l-4.7,0.7c-0.8,0.1-1.6,0.3-2.4,0.3l-2.4,0.1c-1,0-2.1,0.1-3.1,0.2  c1.3-21.3,2-42.6,2.3-64c6.9-0.1,13.8-0.2,20.7-0.4c0.1,2.6,0.3,5.3,0.7,7.9c0.4,3.5,1.3,6.8,2.1,10.1c0.5,1.6,1.1,3.3,1.7,4.9  c0.3,0.8,0.6,1.6,0.9,2.4l1.1,2.4c2.7,6.4,6.7,12.1,11.2,17.4c1.1,1.2,2.3,2,3.5,2.4c-0.6,0.5-1.2,1-1.7,1.5  C139,155.3,133.6,158.6,127.8,161.2z M170.2,106c-0.5,2-1.2,4.2-1.8,6.8c-0.4,1.2-0.8,2.6-1.2,3.9c-0.4,1.4-0.8,2.8-1.4,4.2  l-1.7,4.4l-2.1,4.3c-0.4,0.7-0.7,1.4-1.1,2.1l-1.3,2l-1.3,2c-0.4,0.7-0.8,1.4-1.3,2l-2.9,3.8c-1,1.3-2.1,2.3-3.2,3.5l-1.6,1.7  c0,0,0,0-0.1,0.1c-0.2-1.2-0.9-2.5-1.9-3.6c-4-4.8-7.7-10-10.1-15.8l-1-2.1c-0.3-0.7-0.5-1.5-0.8-2.2c-0.5-1.5-1.1-3-1.5-4.5  c-0.7-3.1-1.6-6.1-1.9-9.2c-0.4-2.4-0.6-4.7-0.7-7.1c13.5-0.4,26.9-1,40.3-1.8c0.2,0,0.3,0,0.5-0.1  C171.4,101.3,170.8,103.3,170.2,106z"/><text x="0" y="215" fill="#000000" font-size="5px" font-weight="bold" font-family="'Helvetica Neue', Helvetica, Arial-Unicode, Arial, Sans-serif">Created by Symbolon</text><text x="0" y="220" fill="#000000" font-size="5px" font-weight="bold" font-family="'Helvetica Neue', Helvetica, Arial-Unicode, Arial, Sans-serif">from the Noun Project</text></svg>