<svg xmlns="http://www.w3.org/2000/svg" xmlns:xlink="http://www.w3.org/1999/xlink" version="1.1" x="0px" y="0px" viewBox="0 0 200 250" style="enable-background:new 0 0 200 200;" xml:space="preserve"><g><path d="M174.8,140.2c-0.1-1.3-0.2-2.4-0.2-3.6l0-3.8V71c0-11.1,0-22.1-0.1-33.2l-14.2,0c-3.6,0-7.3,0.1-10.6-0.1   c-6.8-0.3-13.3-2.2-19.9-4.8c-3.3-1.2-6.5-2.7-10.2-3.9c-3.6-1.2-7.4-2.2-11.9-1.7c-2.2,0.3-4.6,1.2-6.4,2.9   c-0.6,0.5-1.1,1.1-1.5,1.7c-0.6-0.9-1.4-1.8-2.4-2.6c-1.1-0.9-2.3-1.4-3.6-1.8c-2.5-0.6-4.8-0.8-7.1-0.5c-2.3,0.3-4.5,0.9-6.5,1.6   c-2.1,0.7-4,1.6-5.8,2.5c-3.7,1.8-7.2,3.7-10.7,5c-3.3,1.2-7,1.6-10.9,1.6c-1.9,0-3.9,0-6,0l-1.5,0l-0.6,0l-0.7,0l-2.9-0.3   c-2-0.2-4.1-0.4-6.3-0.5c-1.1,0-2.2-0.1-3.4,0c-0.3,0-0.6,0-1.2,0.2c-0.5,0.1-1,0.2-1.4,0.3c-0.9,0.4-1.8,0.8-2.4,1.5   c-0.6,0.7-1.1,1.6-1.2,2.5c-0.1,0.5-0.2,1-0.3,1.5c0,0.4,0,0.6-0.1,1c0,1.2,0,2.3,0,3.3l0.2,3.1c0,0.5,0,0.9,0,1.3l0,1.5l0,24.3   V137c0,2.2-0.3,4.6-0.2,7.6c0.1,0.8,0.1,1.5,0.4,2.6c0.3,1.2,1,2.3,1.8,3.1c0.4,0.5,1,0.7,1.5,1c0.6,0.2,1.1,0.5,1.7,0.6   c0.6,0.1,0.9,0.2,1.3,0.2c0.4,0,0.8,0.1,1.1,0.1c2.9,0.1,5.4-0.2,7.9-0.4c1.2-0.1,2.5-0.3,3.6-0.3c0.9-0.1,2.2,0,3.4,0   c4.9,0,10.2,0.1,15.6-1.2c5.3-1.3,10-3.8,14.3-5.8c4.1-2,7.6-3.6,10.3-4.7c2.7-1.1,4.5-1.9,4.5-2.9c0-0.9-2-1.9-5.4-1.9   c-3.4-0.1-8,1.2-12.3,3.3c-4.5,2.2-8.8,4.3-13,5.4c-4.3,1-9,1-13.9,1c-1.3,0-2.4-0.1-4,0c-1.4,0.1-2.6,0.2-3.8,0.4   c-2.4,0.2-4.8,0.5-6.9,0.4c-0.3,0-0.5,0-0.7-0.1c-0.2,0-0.5-0.1-0.5-0.1l0,0c0-0.2-0.1-0.6-0.1-1.1c-0.1-1.9,0.2-4.5,0.2-7.2V77.7   l0-24.3l0-1.5c0-0.6,0-1.2-0.1-1.7l-0.2-3c-0.1-1-0.1-1.9-0.1-2.7c0-0.2,0-0.5,0-0.6c0,0,0,0,0,0c0,0,0,0,0,0c0,0,0,0,0,0l0,0   c-0.1,0,0.1,0,0.3,0c0.8-0.1,1.7-0.1,2.6-0.1c1.9,0.1,3.8,0.2,5.8,0.4l3.1,0.3l0.9,0l0.9,0l1.5,0c2,0,4.1,0,6.2-0.1   c4.2-0.1,8.6-0.6,12.9-2.3c4.1-1.6,7.7-3.7,11.2-5.5c1.8-0.9,3.5-1.8,5.2-2.4c1.7-0.7,3.5-1.2,5.2-1.5c0.4,0,0.9-0.1,1.3-0.1l1.3,0   c0.4,0,0.8,0.1,1.2,0.1l0.6,0.1l0.5,0.1c1.4,0.4,2.4,1.1,3.3,2.4c0.7,1,1.1,2.2,1.5,3.5c0,0.1,0,0.2-0.1,0.3C97.1,40,97,41,97,41.9   c-0.2,1.9-0.2,3.8-0.2,5.6c0,3.7,0.3,7.3,0.6,10.9c0.1,1.8,0.2,3.5,0.2,5.3l0.1,5.4c0.1,7.2,0.3,14.3,0.4,21.5   c0.3,14.3,0.7,28.7,1,43v0c0.1,4.4,1.7,4.4,1.8,0v0c0.3-14.3,0.6-28.6,1-43c0.1-7.2,0.3-14.3,0.4-21.5l0.1-5.4c0-1.6,0-3.2-0.1-4.8   c0-0.4,0-0.7,0.1-1.1c0.3-4,0.8-8.1,0.8-12.3c0-1.9-0.1-3.8-0.4-5.8c0.2-0.6,0.3-1.3,0.5-1.9c0.4-1.4,1.2-2.5,2-3.3   c0.9-0.8,2-1.2,3.3-1.4c2.8-0.3,6,0.6,9.2,1.7c3.1,1.1,6.5,2.7,9.9,4c3.4,1.4,6.9,2.6,10.5,3.6c3.7,1,7.4,1.7,11.2,1.9   c3.9,0.2,7.4,0.1,11,0.2l5.4,0l1.3,0l0.6,0l0,0l0,0c0,8.8,0,17.6-0.1,26.4v61.7l0,3.9c0,1.4,0.1,2.8,0.2,4.1   c0.1,1.3,0.2,2.6,0.1,3.1c0,0.1,0,0.1,0,0.1l-0.4,0.3l-0.6,0.3l-0.7,0.3c-0.4,0.1-0.8,0.3-1.3,0.3c-1,0.2-2.1,0.3-3.3,0.3   c-2.4,0.1-4.8-0.1-7.4-0.3l-7.7-0.6c-2.3-0.1-4.6-0.6-6.9-1.3c-4.6-1.3-9.2-3.4-14-5.4c-4.6-1.9-9.3-3-12.8-2.9   c-1.8,0.1-3.2,0.3-4.1,0.7c-1,0.4-1.5,0.8-1.5,1.3c0,1,1.9,1.8,4.8,2.8c2.9,1.1,6.6,2.7,11,4.5c4.7,1.9,9.4,4.1,14.8,5.7   c2.7,0.7,5.4,1.3,8.3,1.5l7.7,0.6c2.6,0.2,5.3,0.4,8.1,0.3c1.4,0,2.8-0.1,4.4-0.4c0.8-0.1,1.6-0.4,2.4-0.6l1.1-0.4l1.2-0.5   c0.8-0.4,1.8-1,2.6-2.1c0.8-1,1.3-2.3,1.4-3.4C175.1,142.7,174.9,141.5,174.8,140.2z"/><path d="M169.9,152.9c-0.4,0.1-0.6,0.7-0.7,1.4c0,1.5-1,2.5-2.4,3.2c-1.4,0.7-3.1,1-4.7,1.3c-3.4,0.5-6.9,0.5-10.4,0.4   c-3.5-0.1-7-0.4-10.8-0.4l-2.7,0.1l-2.6,0l-5.4,0c-3.6,0.1-7.5,0.2-11.5,1.5c-3.9,1.3-7,3.2-10,4.4c-1.5,0.6-2.9,1-4.4,1.3   c-1.4,0.2-3.1,0.3-4.6,0.2c-3-0.2-5.9-1.2-9-2.6c-1.9-0.9-3.9-1.9-6.1-2.7c-1.1-0.4-2.1-0.8-3.4-1.2c-1.3-0.4-2.5-0.6-3.7-0.8   c-2.4-0.3-4.7-0.4-6.9-0.4l-3.2-0.1c-1.1,0-1.9-0.1-3.3-0.2c-2.4-0.1-4.5-0.1-6.7-0.1c-2.2,0-4.3,0-6.4-0.1   c-2.1-0.1-4.2-0.3-6.2-0.6c-2-0.3-3.9-0.8-5.3-1.4c-0.7-0.3-1.1-0.6-1.4-0.7c-0.3-0.1-0.7-0.2-1-0.4c-0.7-0.5-1.3-1.6-2.2-1.8   c-0.5-0.1-0.9,0-1.4,0.3c-0.2,0.2-0.5,0.4-0.7,0.8c-0.2,0.4-0.4,0.8-0.5,1.4c-0.2,1.1,0.1,2.6,0.9,3.8c0.8,1.3,2,2.2,3.2,2.8   c2.6,1.2,5,1.7,7.3,2.1c2.3,0.4,4.6,0.5,6.9,0.6c4.5,0.2,9,0.1,13.1,0.2c0.8,0,2.2,0.2,3.3,0.2l3.3,0.1c2.2,0.1,4.2,0.1,6.2,0.4   c1,0.1,1.9,0.3,2.7,0.5c0.8,0.2,1.9,0.6,2.8,1c1.9,0.8,3.8,1.7,5.8,2.6c3.3,1.6,7.4,3,11.5,3.2c2.1,0.1,4,0,6.1-0.4   c2.1-0.4,4-1,5.8-1.8c3.6-1.6,6.5-3.5,9.5-4.6c2.8-1.1,6.2-1.5,9.7-1.7l5.3-0.3l2.7-0.2l2.6-0.3c3.4-0.2,7.1-0.2,10.6-0.5   c3.6-0.2,7.3-0.6,10.9-1.5c1.8-0.5,3.6-1.1,5.4-2.1c0.8-0.6,1.7-1.3,2.2-2.2c0.6-0.9,0.8-2.1,0.7-3.1   C170.9,153.1,170.3,152.7,169.9,152.9z"/></g><text x="0" y="215" fill="#000000" font-size="5px" font-weight="bold" font-family="'Helvetica Neue', Helvetica, Arial-Unicode, Arial, Sans-serif">Created by Symbolon</text><text x="0" y="220" fill="#000000" font-size="5px" font-weight="bold" font-family="'Helvetica Neue', Helvetica, Arial-Unicode, Arial, Sans-serif">from the Noun Project</text></svg>