<svg xmlns="http://www.w3.org/2000/svg" xmlns:xlink="http://www.w3.org/1999/xlink" version="1.1" x="0px" y="0px" viewBox="0 0 200 250" style="enable-background:new 0 0 200 200;" xml:space="preserve"><g><path d="M172.9,131L172.9,131c-8.1-10.5-16.8-20.4-26.2-29.8l-17.1-17.1c-0.5-0.5-1.1-0.8-1.8-1c1.1-1.3,2.1-2.9,2.3-4.8   c0.2-1.3,0.1-2.5-0.1-3.7c-0.1-0.6-0.2-1.2-0.4-1.8c-0.2-0.6-0.4-1.1-0.7-1.7c-1-2.2-2.6-4.1-4.2-5.7c-3.3-3.2-7.1-5.6-10.4-8   l-1.2-0.9l-1.1-1c-0.7-0.6-1.4-1.4-2.1-2.1c-1.3-1.5-2.5-3.1-3.6-4.9c-2.3-3.4-4.4-7.2-7-10.9c-2.6-3.6-5.6-7.4-10-10   c-2.1-1.4-4.7-2.1-7.1-2.6c-2.6-0.4-5.5-0.3-8.3,1c-2.8,1.2-4.9,3.7-6,6.3c-1.1,2.6-1.5,5.3-1.3,7.9c0.2,3.2,1.2,6.3,2.8,9l1.3,2   c0.5,0.6,0.9,1.2,1.5,1.7c1,1.1,2.1,2.1,3.3,3c4.6,3.6,9.6,5.7,13.4,8.5c3.8,2.7,6.7,6.6,9.7,10.9c1.5,2.1,3.1,4.3,4.8,6.5   c1.8,2.2,3.8,4.3,6.2,6.1c0.3,0.2,0.6,0.4,0.8,0.6c0.3,0.2,0.6,0.3,0.9,0.5c0.6,0.3,1.2,0.6,1.7,0.8c1.2,0.4,2.3,0.6,3.2,0.7   c1.9,0,3.2-0.5,3.4-1.4c0,0,0,0,0,0c0.3,0.3,1,0.2,1.8-0.5h0c0.8-0.6,1.5-1.3,2.3-1.9c0.1,0.8,0.4,1.6,1,2.2l17.1,17.1   c9.3,9.3,19.3,18.1,29.8,26.2C172.3,132.8,173.4,131.7,172.9,131z M120.3,87.4c-0.3,0.4-0.5,0.7-0.6,1c-0.2-0.7-0.8-1.5-1.6-2.2   c-0.6-0.6-1.2-1.2-2-1.7c-0.4-0.3-0.7-0.6-1.1-0.9c-0.2-0.1-0.4-0.3-0.6-0.4c-0.2-0.2-0.4-0.3-0.6-0.5c-1.8-1.3-3.5-3.1-5-5   c-1.6-1.9-3-4-4.6-6.1c-3-4.3-6.4-8.9-11.3-12.4c-4.7-3.4-9.6-5.4-13.2-8.3c-0.9-0.7-1.8-1.5-2.5-2.3c-0.4-0.4-0.7-0.9-1.1-1.3   l-0.9-1.3c-1.1-1.8-1.7-3.9-1.8-5.9c-0.2-3.4,1-6.6,3.4-7.6c1.2-0.6,2.7-0.7,4.4-0.5c1.7,0.4,3.4,0.8,4.9,1.7   c3.1,1.7,5.8,4.7,8.3,7.9c2.5,3.3,4.8,6.9,7.4,10.5c1.3,1.8,2.8,3.5,4.4,5.2c0.9,0.8,1.6,1.7,2.6,2.4l1.4,1.1l1.4,0.9   c3.7,2.4,7.4,4.4,10.5,7c1.5,1.3,2.9,2.7,3.8,4.3c0.9,1.6,1.5,3.5,1.4,5.2c-0.1,1.7-1,3.3-2.4,4.8   C123.4,84.4,121.8,85.8,120.3,87.4z"/><path d="M139,158.8c-0.2-0.5-0.5-0.9-0.7-1.4c-0.5-1-1-1.8-1.6-2.6c-2.3-3.1-5-5.5-7.6-7.8c-2-1.8-4.1-3.5-5.8-5.2l-5.7-5.7   l-11.4-11.4l-22.8-22.8l-5.7-5.7l-1.4-1.4l-0.7-0.7l-0.5-0.4l-0.5-0.4c-1.1-1-2.1-1.8-3-2.5c-0.4-0.4-0.8-0.8-1.1-1.1   c-0.1-0.2-0.2-0.3-0.3-0.3c0,0,0,0-0.1-0.2c-0.2-0.5-0.1-1.4,0-2.6c0.3-2.3,1.2-5.3,0.6-9c-0.5-3.1-1.7-6.1-3.6-8.8   c-1.8-2.7-4.4-4.8-7.2-6.3c-5.7-2.9-12.3-3.3-18.2-1.5c-2.8,0.9-5.3,2.3-7.3,4c-1.9,1.7-3.3,3.6-4.1,5.3c-1.7,3.5-1.4,5.9-0.6,6.2   c0,0.4,1.2,0.8,3.5,0.8h0c2.7,0,5.4,0,8.1,0l4,0l1.5,0c0.4,0,0.9,0,1.2,0c0,0.4,0,0.9,0,1.3l0,1.5c0,1.3,0.1,2.6,0,3.8   c-0.1,1.2-0.3,2.4-0.8,3.1c-0.2,0.4-0.5,0.6-0.8,0.8c-0.4,0.2-0.8,0.3-1.4,0.4c-2.3,0.4-4.9,0.2-7.4,0l-4.9-0.4   c-2-0.1-3.9-0.2-5.9-0.2l0,0.1l0.1,0.2l0.2,0.4l0.3,0.9l0.7,1.7c0.4,1.2,1,2.2,1.6,3.4c0.4,1.1,1.6,2.4,2.1,3   c0.7,0.6,1.4,1.4,2.2,1.9c3.3,2.3,7.1,3.1,10.4,3.6c3.4,0.6,6.6,1,9.3,2.2c2.5,1.1,5.1,3.3,7.5,5.5c4.8,4.5,9,9.7,13.6,14.8   c1.1,1.3,2.3,2.6,3.5,3.8c1.2,1.2,2.3,2.4,3.5,3.6c2.3,2.4,4.5,5,6.8,7.5c9,10.1,17.9,20.7,29,29.5c0.7,0.5,1.4,1.1,2.1,1.6   l1.1,0.8c0.4,0.3,0.9,0.6,1.3,0.8c0.9,0.6,1.9,1,2.9,1.4c1.1,0.3,2.2,0.6,3.3,0.6c2.3,0.2,4.8-0.4,6.9-1.8c2.1-1.4,3.7-3.6,4.3-6   c0.6-2.4,0.4-4.8-0.2-6.9L139,158.8z M133.2,165.4c-0.5,1.8-2.2,3-4.3,2.8c-0.5,0-1.1-0.2-1.7-0.3c-0.6-0.3-1.1-0.4-1.7-0.8   l-0.8-0.5l-1-0.7c-0.7-0.5-1.3-0.9-2-1.4c-10.4-8-19.3-18.3-28.5-28.3c-2.3-2.5-4.6-5-7-7.5c-1.2-1.2-2.4-2.5-3.6-3.7   c-1.2-1.2-2.3-2.4-3.5-3.6c-4.6-4.9-9.1-10.1-14.3-14.8c-1.3-1.2-2.7-2.3-4.1-3.4c-0.7-0.5-1.4-1-2.3-1.5l-1.3-0.7l-1.3-0.6   c-3.6-1.5-7.2-1.7-10.5-2.2c-3.3-0.4-6.4-1-8.7-2.6c-0.6-0.3-1.1-0.9-1.7-1.3c-0.6-0.7-0.6-0.7-0.9-1c-0.2-0.3-0.4-0.6-0.6-1   l-0.2-0.5L33,91.7L33,91.5l0-0.1l0.1,0c0.5,0,1.1,0,1.7,0l2.9,0.1c2.7,0.1,5.4,0.2,8.3-0.4c0.7-0.2,1.5-0.4,2.3-0.8   c0.8-0.5,1.5-1.2,1.9-2c0.9-1.6,0.9-3.1,1-4.5c0-1.4,0-2.8-0.1-4.1c0-0.5-0.1-1.6-0.1-2.5l-0.1-2.7c-0.9,0-1.8,0.1-2.8,0.1   l-2.5,0.1l-4,0.2c-2.7,0.1-5.4,0.3-8.1,0.4h0c-0.6,0-1.2,0.1-1.6,0.2c0.7-0.6,1.6-1.6,2.7-2.6c2.2-2,5.4-4.4,9.5-5.6   c4.3-1.4,9.2-1,13,1c1.9,1,3.6,2.4,4.8,4.2c1.2,1.7,2.1,3.8,2.4,6c0.3,1.7-0.2,4-0.7,6.9c-0.2,1.5-0.4,3.3,0.2,5.4   c0.1,0.3,0.1,0.5,0.3,0.8c0.1,0.3,0.3,0.6,0.4,0.9c0.3,0.5,0.6,0.9,0.9,1.3c0.6,0.7,1.2,1.3,1.7,1.8c1.1,1,2.2,1.9,3.1,2.6l0.3,0.3   l0.3,0.3l0.7,0.7l1.4,1.4l5.7,5.7l22.8,22.8l11.4,11.4l5.7,5.7c2.1,2,4.2,3.8,6.1,5.5c2.5,2.2,4.9,4.4,6.6,6.7   c0.4,0.6,0.8,1.2,1.1,1.7c0.1,0.3,0.3,0.6,0.4,0.9l0.3,0.9C133.3,163.4,133.4,164.5,133.2,165.4z"/></g><text x="0" y="215" fill="#000000" font-size="5px" font-weight="bold" font-family="'Helvetica Neue', Helvetica, Arial-Unicode, Arial, Sans-serif">Created by Symbolon</text><text x="0" y="220" fill="#000000" font-size="5px" font-weight="bold" font-family="'Helvetica Neue', Helvetica, Arial-Unicode, Arial, Sans-serif">from the Noun Project</text></svg>